<svg width="19" height="15" viewBox="0 0 19 15" fill="none" xmlns="http://www.w3.org/2000/svg">
<path d="M17.8281 3.10417H1.4219C0.757842 3.10417 0.250031 2.59636 0.250031 1.9323C0.250031 1.26824 0.757842 0.760426 1.4219 0.760426H17.8281C18.4922 0.760426 19 1.26824 19 1.9323C19 2.59636 18.4922 3.10417 17.8281 3.10417Z" fill="#DB1F1F"/>
<path d="M17.8281 8.57291H1.4219C0.757842 8.57291 0.250031 8.0651 0.250031 7.40104C0.250031 6.73698 0.757842 6.22917 1.4219 6.22917H17.8281C18.4922 6.22917 19 6.73698 19 7.40104C19 8.0651 18.4922 8.57291 17.8281 8.57291Z" fill="#DB1F1F"/>
<path d="M17.8281 14.0417H1.4219C0.757842 14.0417 0.250031 13.5338 0.250031 12.8698C0.250031 12.2057 0.757842 11.6979 1.4219 11.6979H17.8281C18.4922 11.6979 19 12.2057 19 12.8698C19 13.5338 18.4922 14.0417 17.8281 14.0417Z" fill="#DB1F1F"/>
</svg>
