<svg width="372" height="12" viewBox="0 0 372 12" fill="none" xmlns="http://www.w3.org/2000/svg">
<rect x="180.528" y="6" width="7.6368" height="7.6368" rx="2" transform="rotate(-45 180.528 6)" fill="url(#paint0_linear_183_2518)"/>
<rect x="170.2" y="6" width="5.27208" height="5.27208" rx="2" transform="rotate(-45 170.2 6)" fill="url(#paint1_linear_183_2518)"/>
<rect x="194.2" y="6" width="5.27208" height="5.27208" rx="2" transform="rotate(-45 194.2 6)" fill="url(#paint2_linear_183_2518)"/>
<line x1="163.25" y1="6.75" x2="0.75" y2="6.74999" stroke="url(#paint3_linear_183_2518)" stroke-width="1.5" stroke-linecap="round"/>
<line x1="0.75" y1="-0.75" x2="163.25" y2="-0.75" transform="matrix(1 -8.74228e-08 -8.74228e-08 -1 208 6)" stroke="url(#paint4_linear_183_2518)" stroke-width="1.5" stroke-linecap="round"/>
<defs>
<linearGradient id="paint0_linear_183_2518" x1="184.346" y1="6" x2="184.346" y2="13.6368" gradientUnits="userSpaceOnUse">
<stop stop-color="#DB1F1F"/>
<stop offset="1" stop-color="#9D0B0F"/>
</linearGradient>
<linearGradient id="paint1_linear_183_2518" x1="172.836" y1="6" x2="172.836" y2="11.2721" gradientUnits="userSpaceOnUse">
<stop stop-color="#DB1F1F"/>
<stop offset="1" stop-color="#9D0B0F"/>
</linearGradient>
<linearGradient id="paint2_linear_183_2518" x1="196.836" y1="6" x2="196.836" y2="11.2721" gradientUnits="userSpaceOnUse">
<stop stop-color="#DB1F1F"/>
<stop offset="1" stop-color="#9D0B0F"/>
</linearGradient>
<linearGradient id="paint3_linear_183_2518" x1="164" y1="5.49882" x2="2.5437e-08" y2="5.49881" gradientUnits="userSpaceOnUse">
<stop stop-color="#323232"/>
<stop offset="1" stop-color="#323232" stop-opacity="0"/>
</linearGradient>
<linearGradient id="paint4_linear_183_2518" x1="1.83775e-08" y1="0.501183" x2="164" y2="0.501177" gradientUnits="userSpaceOnUse">
<stop stop-color="#323232"/>
<stop offset="1" stop-color="#323232" stop-opacity="0"/>
</linearGradient>
</defs>
</svg>
