<svg width="1115" height="330" viewBox="0 0 1115 330" fill="none" xmlns="http://www.w3.org/2000/svg">
<g opacity="0.53">
<path d="M1403.65 100.842C1349.85 162.712 1268.79 233.792 1166.45 238.239C1039.05 243.775 989.052 127.33 883.402 155.123C753.698 189.241 733.062 327.713 604.448 410.066C519.484 464.469 376.135 501.595 120.96 418.831" stroke="white" stroke-width="1.72" stroke-linecap="round" stroke-linejoin="round"/>
<path d="M1401.1 108.427C1347.1 169.247 1265.86 239.038 1163.49 243.075C1144.42 243.843 1127.05 241.9 1110.96 238.133C1019.85 216.817 969.969 137.253 880.86 159.83C816.983 175.837 779.388 216.874 742.02 264.107C703.909 312.438 666.016 367.195 600.795 408.261C515.414 461.946 372.247 499.443 118.775 420.77" stroke="white" stroke-width="1.72" stroke-linecap="round" stroke-linejoin="round"/>
<path d="M1398.54 116.011C1344.35 175.78 1262.93 244.287 1160.52 247.911C1141.52 248.613 1124.19 246.65 1108.09 242.888C1016.92 221.588 966.813 143.233 878.318 164.54C814.733 179.851 776.965 219.381 739.268 265.357C700.92 312.431 662.559 365.96 597.142 406.456C511.341 459.421 368.36 497.292 116.592 422.708" stroke="white" stroke-width="1.72" stroke-linecap="round" stroke-linejoin="round"/>
<path d="M1395.99 123.596C1341.6 182.316 1260.01 249.534 1157.56 252.747C1138.62 253.384 1121.32 251.4 1105.21 247.643C1013.99 226.361 963.621 149.093 875.774 169.25C812.455 183.778 774.435 221.798 736.514 266.605C697.819 312.329 659.101 364.726 593.488 404.65C507.266 456.898 364.47 495.139 114.407 424.646" stroke="white" stroke-width="1.72" stroke-linecap="round" stroke-linejoin="round"/>
<path d="M1393.44 131.18C1338.85 188.848 1257.08 254.781 1154.6 257.583C1135.73 258.154 1118.45 256.15 1102.34 252.398C1011.06 231.131 960.432 154.949 873.235 173.959C810.182 187.704 771.983 224.273 733.764 267.856C694.798 312.289 655.645 363.494 589.838 402.847C503.196 454.375 360.586 492.989 112.226 426.585" stroke="white" stroke-width="1.72" stroke-linecap="round" stroke-linejoin="round"/>
<path d="M1390.88 138.762C1336.1 195.381 1254.15 260.025 1151.63 262.417C1132.83 262.925 1115.58 260.898 1099.47 257.15C1008.13 235.899 957.235 160.801 870.693 178.667C807.902 191.629 769.531 226.744 731.012 269.101C691.778 312.246 652.189 362.257 586.185 401.04C499.124 451.85 356.698 490.834 110.041 428.521" stroke="white" stroke-width="1.72" stroke-linecap="round" stroke-linejoin="round"/>
<path d="M1388.33 146.347C1333.35 201.917 1251.22 265.053 1148.67 267.251C1129.94 267.652 1112.72 265.646 1096.6 261.902C1005.2 240.67 954.036 166.65 868.149 183.374C805.617 195.548 767.078 229.215 728.258 270.347C688.757 312.201 648.73 361.021 582.532 399.23C495.051 449.323 352.811 488.676 107.858 430.455" stroke="white" stroke-width="1.72" stroke-linecap="round" stroke-linejoin="round"/>
<path d="M1385.77 153.932C1330.6 208.45 1248.29 270.268 1145.7 272.087C1127.04 272.418 1109.85 270.396 1093.73 266.657C1002.27 245.44 950.835 172.497 865.609 188.081C803.337 199.468 764.633 231.686 725.509 271.595C685.743 312.158 645.274 359.784 578.882 397.425C490.981 446.798 348.926 486.523 105.677 432.393" stroke="white" stroke-width="1.72" stroke-linecap="round" stroke-linejoin="round"/>
<path d="M1383.22 161.516C1327.85 214.985 1245.36 275.485 1142.74 276.923C1124.14 277.184 1106.98 275.147 1090.86 271.412C999.339 250.211 947.629 178.342 863.065 192.791C801.048 203.388 762.183 234.159 722.755 272.843C682.728 312.115 641.897 358.699 575.227 395.619C487.015 444.471 345.036 484.371 103.49 434.332" stroke="white" stroke-width="1.72" stroke-linecap="round" stroke-linejoin="round"/>
<path d="M1380.66 169.101C1325.1 221.518 1242.44 280.703 1139.77 281.759C1121.25 281.95 1104.11 279.897 1087.99 276.169C996.409 254.986 944.422 184.184 860.523 197.503C798.759 207.308 759.739 236.635 720.003 274.095C679.716 312.074 638.447 357.482 571.575 393.819C482.951 441.971 341.149 482.222 101.307 436.273" stroke="white" stroke-width="1.72" stroke-linecap="round" stroke-linejoin="round"/>
<path d="M1378.11 176.685C1322.35 228.053 1239.51 285.922 1136.81 286.595C1118.35 286.716 1101.24 284.647 1085.12 280.924C993.478 259.756 941.211 190.02 857.979 202.212C796.468 211.223 757.296 239.106 717.249 275.343C676.705 312.031 634.993 356.264 567.92 392.013C478.885 439.468 337.259 480.069 99.1216 438.211" stroke="white" stroke-width="1.72" stroke-linecap="round" stroke-linejoin="round"/>
<path d="M1375.56 184.27C1319.6 234.586 1236.58 291.142 1133.85 291.431C1115.46 291.482 1098.38 289.397 1082.25 285.678C990.551 264.527 937.999 195.853 855.439 206.922C794.176 215.136 754.858 241.579 714.499 276.593C673.7 311.991 631.544 355.045 564.27 390.208C474.822 436.963 333.374 477.919 96.9409 440.15" stroke="white" stroke-width="1.72" stroke-linecap="round" stroke-linejoin="round"/>
<path d="M1373 191.854C1316.85 241.121 1233.65 296.366 1130.88 296.267C1112.56 296.248 1095.5 294.148 1079.37 290.433C987.618 269.3 934.78 201.68 852.893 211.631C791.878 219.044 752.418 244.05 711.743 277.841C670.691 311.946 628.088 353.822 560.612 388.403C470.752 434.456 329.48 475.766 94.7512 442.088" stroke="white" stroke-width="1.72" stroke-linecap="round" stroke-linejoin="round"/>
<path d="M1370.45 199.437C1314.1 247.652 1230.73 301.588 1127.92 301.1C1109.67 301.014 1092.64 298.898 1076.51 295.186C984.69 274.068 931.563 207.502 850.353 216.337C789.582 222.948 749.986 246.519 708.993 279.087C667.69 311.901 624.636 352.597 556.962 386.595C466.688 431.947 325.595 473.611 92.5703 444.022" stroke="white" stroke-width="1.72" stroke-linecap="round" stroke-linejoin="round"/>
<path d="M1367.89 207.021C1311.35 254.187 1227.8 306.812 1124.95 305.936C1106.77 305.78 1089.77 303.648 1073.64 299.94C981.762 278.839 928.344 213.322 847.811 221.046C787.284 226.852 747.553 248.992 706.241 280.335C664.69 311.86 621.182 351.374 553.309 384.79C462.62 429.437 321.707 471.458 90.3875 445.96" stroke="white" stroke-width="1.72" stroke-linecap="round" stroke-linejoin="round"/>
<path d="M1365.34 214.606C1308.6 260.72 1224.88 312.038 1121.99 310.772C1103.88 310.549 1086.9 308.398 1070.76 304.695C978.83 283.611 925.116 219.135 845.267 225.756C784.981 230.754 745.124 251.466 703.487 281.585C661.692 311.819 617.726 350.153 549.655 382.987C458.55 426.93 317.818 469.308 88.2021 447.901" stroke="white" stroke-width="1.72" stroke-linecap="round" stroke-linejoin="round"/>
<path d="M1362.79 222.19C1305.85 267.255 1221.95 317.267 1119.03 315.608C1100.98 315.317 1084.04 313.148 1067.9 309.45C975.904 288.382 921.894 224.946 842.727 230.465C782.681 234.651 742.699 253.939 700.738 282.833C658.701 311.779 614.274 348.927 546.004 381.179C454.482 424.419 313.933 467.152 86.0193 449.837" stroke="white" stroke-width="1.72" stroke-linecap="round" stroke-linejoin="round"/>
<path d="M1360.23 229.775C1303.1 273.788 1219.02 322.498 1116.06 320.444C1098.08 320.085 1081.17 317.899 1065.02 314.204C972.971 293.152 918.664 230.75 840.183 235.175C780.374 238.546 740.272 256.414 697.983 284.083C655.708 311.743 610.816 347.702 542.349 379.376C450.41 421.909 310.043 465.002 83.834 451.776" stroke="white" stroke-width="1.72" stroke-linecap="round" stroke-linejoin="round"/>
<path d="M1357.68 237.359C1300.35 280.323 1216.1 327.729 1113.09 325.28C1095.19 324.854 1078.3 322.649 1062.15 318.959C970.042 297.925 915.433 236.549 837.639 239.885C778.065 242.439 737.85 258.892 695.229 285.331C652.717 311.704 607.358 346.477 538.697 377.571C446.34 419.398 306.156 462.849 81.6511 453.714" stroke="white" stroke-width="1.72" stroke-linecap="round" stroke-linejoin="round"/>
<path d="M1355.12 244.944C1297.6 286.856 1213.17 332.962 1110.13 330.114C1092.29 329.622 1075.43 327.397 1059.28 323.712C967.111 302.693 912.203 242.34 835.099 244.59C775.76 246.323 735.433 261.365 692.48 286.574C649.733 311.664 603.904 345.242 535.047 375.761C442.272 416.879 302.271 460.694 79.4705 455.648" stroke="white" stroke-width="1.72" stroke-linecap="round" stroke-linejoin="round"/>
<path d="M1352.57 252.528C1294.85 293.392 1210.25 338.197 1107.17 334.95C1089.4 334.39 1072.56 332.147 1056.41 328.466C964.181 307.466 908.968 248.128 832.555 249.299C773.45 250.206 733.015 263.845 689.726 287.824C646.748 311.63 600.445 344.017 531.392 373.958C438.197 414.365 298.381 458.543 77.283 457.589" stroke="white" stroke-width="1.72" stroke-linecap="round" stroke-linejoin="round"/>
<path d="M1350.02 260.113C1292.1 299.925 1207.32 343.432 1104.2 339.786C1086.5 339.161 1069.69 336.897 1053.54 333.221C961.251 312.237 905.731 253.91 830.013 254.009C771.139 254.086 730.602 266.328 686.974 289.072C643.768 311.598 596.987 342.787 527.739 372.15C434.124 411.847 294.494 456.388 75.0999 459.525" stroke="white" stroke-width="1.72" stroke-linecap="round" stroke-linejoin="round"/>
<path d="M1347.46 267.695C1289.35 306.458 1204.4 348.67 1101.24 344.619C1083.61 343.927 1066.83 341.645 1050.67 337.974C958.323 317.005 902.496 259.684 827.474 258.716C768.832 257.96 728.193 268.81 684.224 290.32C640.791 311.569 593.531 341.557 524.089 370.345C430.052 409.328 290.609 454.235 72.9192 461.461" stroke="white" stroke-width="1.72" stroke-linecap="round" stroke-linejoin="round"/>
<path d="M1344.91 275.28C1286.6 312.99 1201.47 353.91 1098.27 349.455C1080.71 348.697 1063.96 346.395 1047.8 342.728C955.393 321.778 899.259 265.454 824.929 263.426C766.515 261.83 725.784 271.297 681.47 291.568C637.813 311.542 590.07 340.325 520.434 368.54C425.977 406.81 286.719 452.083 70.7317 463.4" stroke="white" stroke-width="1.72" stroke-linecap="round" stroke-linejoin="round"/>
<path d="M1342.35 282.864C1283.85 319.526 1198.54 359.15 1095.31 354.291C1077.82 353.468 1061.09 351.146 1044.92 347.483C952.461 326.548 896.017 271.22 822.386 268.135C764.202 265.698 723.376 273.786 678.716 292.818C634.838 311.519 586.609 339.095 516.779 366.737C421.9 404.294 282.829 449.932 68.5466 465.34" stroke="white" stroke-width="1.72" stroke-linecap="round" stroke-linejoin="round"/>
<path d="M1339.8 290.449C1281.1 326.059 1195.62 364.394 1092.35 359.127C1074.92 358.238 1058.22 355.896 1042.06 352.238C949.535 331.319 892.782 276.977 819.846 272.843C761.89 269.557 720.971 276.275 675.966 294.064C631.867 311.494 583.153 337.859 513.129 364.927C417.828 401.766 278.944 447.775 66.3657 467.274" stroke="white" stroke-width="1.72" stroke-linecap="round" stroke-linejoin="round"/>
<path d="M1337.24 298.034C1278.35 332.594 1192.69 369.639 1089.38 363.963C1072.02 363.009 1055.35 360.646 1039.18 356.993C946.602 336.092 889.538 282.729 817.302 277.552C759.576 273.416 718.567 278.771 673.212 295.314C628.894 311.479 579.69 336.626 509.474 363.124C413.751 399.246 275.052 445.624 64.1807 469.213" stroke="white" stroke-width="1.72" stroke-linecap="round" stroke-linejoin="round"/>
<path d="M1334.69 305.618C1275.6 339.127 1189.77 374.885 1086.42 368.799C1069.13 367.782 1052.49 365.396 1036.31 361.747C943.674 340.862 886.301 288.474 814.76 282.262C757.262 277.268 716.165 281.271 670.46 296.562C625.925 311.463 576.232 335.392 505.821 361.319C409.674 396.723 271.165 443.471 61.9954 471.151" stroke="white" stroke-width="1.72" stroke-linecap="round" stroke-linejoin="round"/>
<path d="M1332.14 313.203C1272.85 345.662 1186.84 380.134 1083.45 373.635C1066.24 372.552 1049.62 370.147 1033.44 366.502C940.746 345.633 883.064 294.215 812.22 286.971C754.951 281.116 713.768 283.772 667.711 297.812C622.961 311.454 572.773 334.158 502.171 359.516C405.599 394.2 267.28 441.323 59.8147 473.092" stroke="white" stroke-width="1.72" stroke-linecap="round" stroke-linejoin="round"/>
<path d="M1329.58 320.787C1270.1 352.197 1183.92 385.386 1080.49 378.471C1063.34 377.325 1046.75 374.897 1030.57 371.257C937.814 350.405 879.822 299.947 809.673 291.681C752.632 284.959 711.363 286.279 664.955 299.06C619.988 311.445 569.308 332.921 498.516 357.71C401.52 391.675 263.39 439.17 57.6294 475.03" stroke="white" stroke-width="1.72" stroke-linecap="round" stroke-linejoin="round"/>
<path d="M1327.03 328.369C1267.35 358.728 1180.99 390.634 1077.52 383.305C1060.44 382.095 1043.88 379.645 1027.7 376.009C934.886 355.174 876.585 305.672 807.134 296.388C750.323 288.795 708.968 288.786 662.205 300.308C617.026 311.44 565.85 331.682 494.866 355.903C397.445 389.143 259.505 437.015 55.4487 476.967" stroke="white" stroke-width="1.72" stroke-linecap="round" stroke-linejoin="round"/>
<path d="M1324.47 335.954C1264.6 365.263 1178.06 395.888 1074.56 388.141C1057.55 386.868 1041.02 384.395 1024.83 380.764C931.956 359.944 873.348 311.393 804.59 301.098C748.009 292.627 706.566 291.3 659.451 301.556C614.058 311.438 562.387 330.443 491.211 354.097C393.366 386.615 255.616 434.862 53.2612 478.903" stroke="white" stroke-width="1.72" stroke-linecap="round" stroke-linejoin="round"/>
<path d="M1321.92 343.539C1261.85 371.796 1175.14 401.144 1071.6 392.977C1054.65 391.641 1038.15 389.145 1021.96 385.521C929.026 364.719 870.111 317.109 802.048 305.808C745.7 296.452 704.169 293.816 656.699 302.804C611.092 311.44 558.926 329.204 487.559 352.292C389.289 384.083 251.728 432.709 51.0784 480.841" stroke="white" stroke-width="1.72" stroke-linecap="round" stroke-linejoin="round"/>
<path d="M1319.36 351.123C1259.1 378.331 1172.21 406.402 1068.63 397.813C1051.75 396.414 1035.28 393.895 1019.09 390.276C926.096 369.49 866.878 322.816 799.504 310.517C743.388 300.274 701.767 296.336 653.943 304.054C608.121 311.447 555.459 327.965 483.902 350.489C385.205 381.554 247.837 430.559 48.8909 482.782" stroke="white" stroke-width="1.72" stroke-linecap="round" stroke-linejoin="round"/>
<path d="M1316.81 358.708C1256.35 384.864 1169.28 411.662 1065.67 402.647C1048.86 401.184 1032.41 398.643 1016.22 395.028C923.168 374.258 863.647 328.514 796.964 315.225C741.083 304.088 699.372 298.859 651.193 305.3C605.157 311.456 552 326.72 480.251 348.681C381.131 379.02 243.951 428.404 46.7102 484.718" stroke="white" stroke-width="1.72" stroke-linecap="round" stroke-linejoin="round"/>
<path d="M1314.26 366.292C1253.6 391.399 1166.35 416.924 1062.7 407.482C1045.97 405.959 1029.54 403.394 1013.35 399.783C920.238 379.031 860.417 334.21 794.42 319.934C738.776 307.897 696.968 301.387 648.439 306.55C602.186 311.47 548.535 325.481 476.596 346.876C377.049 376.485 240.062 426.251 44.5227 486.654" stroke="white" stroke-width="1.72" stroke-linecap="round" stroke-linejoin="round"/>
<path d="M1311.7 373.877C1250.85 397.932 1163.43 422.187 1059.74 412.318C1043.07 410.732 1026.67 408.144 1010.47 404.538C917.307 383.801 857.189 339.899 791.878 324.644C736.473 311.702 694.568 303.919 645.687 307.798C599.217 311.485 545.074 324.235 472.944 345.071C372.97 373.949 236.174 424.1 42.3396 488.593" stroke="white" stroke-width="1.72" stroke-linecap="round" stroke-linejoin="round"/>
<path d="M1309.15 381.461C1248.1 404.468 1160.5 427.451 1056.78 417.154C1040.17 415.507 1023.81 412.894 1007.61 409.292C914.379 388.572 853.967 345.581 789.336 329.353C734.173 315.502 692.166 306.455 642.935 309.048C596.249 311.506 541.611 322.994 469.291 343.268C368.891 371.415 232.287 421.95 40.1567 490.533" stroke="white" stroke-width="1.72" stroke-linecap="round" stroke-linejoin="round"/>
<path d="M1306.59 389.044C1245.35 410.998 1157.57 432.716 1053.81 421.988C1037.28 420.278 1020.94 417.642 1004.73 414.045C911.449 393.342 850.746 351.256 786.794 334.058C731.877 319.291 689.762 308.989 640.183 310.292C593.276 311.524 538.151 321.744 465.639 341.458C364.811 368.871 228.4 419.792 37.9714 492.467" stroke="white" stroke-width="1.72" stroke-linecap="round" stroke-linejoin="round"/>
<path d="M1304.04 396.628C1242.6 417.534 1154.64 437.985 1050.85 426.824C1034.38 425.053 1018.07 422.392 1001.87 418.8C908.521 398.113 847.531 356.929 784.253 338.768C729.584 323.078 687.355 311.53 637.431 311.542C590.302 311.551 534.688 320.498 461.986 339.655C360.734 366.333 224.512 417.642 35.7886 494.408" stroke="white" stroke-width="1.72" stroke-linecap="round" stroke-linejoin="round"/>
<path d="M1301.49 404.213C1239.85 424.067 1151.71 443.257 1047.88 431.66C1031.49 429.828 1015.21 427.142 998.993 423.554C905.591 402.886 844.319 362.596 781.71 343.478C727.292 326.862 684.947 314.076 634.68 312.79C587.327 311.578 531.225 319.25 458.333 337.847C356.655 363.79 220.623 415.487 33.6055 496.342" stroke="white" stroke-width="1.72" stroke-linecap="round" stroke-linejoin="round"/>
<path d="M1298.93 411.797C1237.1 430.602 1148.78 448.531 1044.92 436.496C1028.59 434.605 1012.33 431.892 996.122 428.309C902.661 407.656 841.109 368.255 779.168 348.187C725.005 330.64 682.538 316.624 631.928 314.04C584.349 311.609 527.764 318.005 454.683 336.044C352.578 361.249 216.738 413.336 31.4248 498.283" stroke="white" stroke-width="1.72" stroke-linecap="round" stroke-linejoin="round"/>
<path d="M1296.38 419.382C1234.35 437.135 1145.85 453.807 1041.96 441.332C1025.69 439.38 1009.47 436.643 993.253 433.064C899.733 412.427 837.908 373.913 776.627 352.897C722.725 334.41 680.125 319.174 629.176 315.288C581.37 311.641 524.301 316.754 451.031 334.239C348.499 358.705 212.85 411.183 29.2395 500.221" stroke="white" stroke-width="1.72" stroke-linecap="round" stroke-linejoin="round"/>
<path d="M1293.82 426.966C1231.6 443.67 1142.92 459.083 1038.99 446.168C1022.8 444.155 1006.6 441.393 990.379 437.818C896.8 417.2 834.707 379.563 774.082 357.606C720.445 338.179 677.707 321.726 626.422 316.538C578.385 311.677 520.836 315.507 447.376 332.436C344.417 356.162 208.961 409.033 27.0544 502.162" stroke="white" stroke-width="1.72" stroke-linecap="round" stroke-linejoin="round"/>
<path d="M1291.27 434.551C1228.85 450.203 1139.99 464.363 1036.02 451.004C1019.9 448.932 1003.73 446.143 987.51 442.573C893.873 421.97 831.515 385.212 771.541 362.314C718.172 341.939 675.289 324.276 623.67 317.784C575.401 311.711 517.344 314.112 443.723 330.626C340.293 353.411 205.073 406.875 24.8713 504.094" stroke="white" stroke-width="1.72" stroke-linecap="round" stroke-linejoin="round"/>
<path d="M1288.71 442.135C1226.09 456.738 1137.06 469.644 1033.06 455.84C1017.01 453.71 1000.86 450.893 984.638 447.328C890.942 426.741 828.325 390.853 768.999 367.023C715.903 345.696 672.869 326.833 620.918 319.031C572.412 311.749 513.885 312.878 440.071 328.821C336.221 350.888 201.186 404.725 22.6885 506.032" stroke="white" stroke-width="1.72" stroke-linecap="round" stroke-linejoin="round"/>
<path d="M1286.16 449.72C1223.35 463.271 1134.13 474.929 1030.1 460.676C1014.11 458.485 997.996 455.644 981.767 452.083C888.012 431.513 825.142 396.493 766.454 371.733C713.637 349.449 670.445 329.389 618.164 320.282C569.421 311.788 510.427 311.645 436.416 327.018C332.146 348.368 197.296 402.574 20.501 507.973" stroke="white" stroke-width="1.72" stroke-linecap="round" stroke-linejoin="round"/>
<path d="M1283.61 457.302C1220.6 469.804 1131.17 480.388 1027.13 465.51C1011.21 463.287 995.129 460.392 978.897 456.835C885.084 436.282 821.968 402.128 763.915 376.44C711.381 353.197 668.02 331.946 615.414 321.527C566.43 311.826 506.973 310.409 432.765 325.21C328.078 345.84 193.411 400.419 18.3201 509.909" stroke="white" stroke-width="1.72" stroke-linecap="round" stroke-linejoin="round"/>
<path d="M1281.05 464.887C1217.85 476.337 1128.24 485.634 1024.17 470.343C1008.31 468.055 992.262 465.14 976.026 461.588C882.152 441.05 818.796 407.758 761.371 381.148C709.129 356.938 665.589 334.505 612.66 322.775C563.432 311.867 503.512 309.172 429.111 323.405C324.003 343.317 189.522 398.266 16.135 511.847" stroke="white" stroke-width="1.72" stroke-linecap="round" stroke-linejoin="round"/>
<path d="M1278.5 472.471C1215.1 482.872 1125.31 490.881 1021.2 475.179C1005.42 472.828 989.393 469.89 973.157 466.342C879.224 445.823 815.633 413.388 758.831 385.857C706.885 360.68 663.16 337.064 609.911 324.023C560.439 311.907 500.058 307.938 425.46 321.597C319.933 340.79 185.637 396.111 13.9543 513.781" stroke="white" stroke-width="1.72" stroke-linecap="round" stroke-linejoin="round"/>
<path d="M1275.94 480.056C1212.34 489.405 1122.39 496.13 1018.24 480.015C1002.52 477.598 986.523 474.64 970.283 471.097C876.291 450.593 812.473 419.014 756.285 390.565C704.641 364.415 660.708 339.68 607.155 325.271C557.42 312 496.598 306.703 421.803 319.792C315.856 338.267 181.745 393.959 11.7646 515.72" stroke="white" stroke-width="1.72" stroke-linecap="round" stroke-linejoin="round"/>
<path d="M1273.39 487.64C1200.01 497.188 1091.78 502.945 967.414 475.854C786.494 436.444 716.626 359.15 604.405 326.521C483.549 291.383 296.492 303.084 9.58398 517.66" stroke="white" stroke-width="1.72" stroke-linecap="round" stroke-linejoin="round"/>
<path d="M1272.6 478.102C1199.78 494.733 1091.59 502.647 967.832 476.752C787.422 439.222 716.097 360.648 600.003 328.085C478.278 293.944 292.419 305.726 9.42578 516.722" stroke="white" stroke-width="1.72" stroke-linecap="round" stroke-linejoin="round"/>
<path d="M1271.8 468.563C1199.55 492.278 1091.39 502.349 968.245 477.653C788.345 442.002 715.578 362.131 595.599 329.651C473.025 296.47 288.344 308.369 9.26343 515.785" stroke="white" stroke-width="1.72" stroke-linecap="round" stroke-linejoin="round"/>
<path d="M1271.01 459.026C1199.32 489.827 1091.19 502.054 968.662 478.553C789.273 444.785 715.075 363.598 591.196 331.217C467.788 298.961 284.272 311.011 9.10303 514.849" stroke="white" stroke-width="1.72" stroke-linecap="round" stroke-linejoin="round"/>
<path d="M1270.22 449.487C1199.09 487.372 1091.05 501.48 969.08 479.453C790.273 447.161 714.583 365.046 586.797 332.783C462.566 301.418 280.202 313.654 8.94507 513.912" stroke="white" stroke-width="1.72" stroke-linecap="round" stroke-linejoin="round"/>
<path d="M1269.43 439.949C1198.86 484.919 1090.86 501.119 969.497 480.351C791.212 449.844 714.102 366.477 582.394 334.347C457.354 303.844 276.129 316.296 8.78467 512.971" stroke="white" stroke-width="1.72" stroke-linecap="round" stroke-linejoin="round"/>
<path d="M1268.63 430.41C1198.63 482.464 1090.67 500.758 969.913 481.252C792.147 452.534 713.626 367.892 577.993 335.913C452.153 306.243 272.057 318.939 8.62451 512.035" stroke="white" stroke-width="1.72" stroke-linecap="round" stroke-linejoin="round"/>
<path d="M1267.84 420.873C1198.39 480.013 1090.48 500.404 970.328 482.152C793.079 455.226 713.158 369.289 573.588 337.479C446.956 308.617 267.982 321.581 8.46191 511.098" stroke="white" stroke-width="1.72" stroke-linecap="round" stroke-linejoin="round"/>
<path d="M1267.05 411.335C1198.16 477.558 1090.29 500.05 970.746 483.05C794.011 457.921 712.702 370.668 569.189 339.041C441.775 310.964 263.912 324.222 8.30615 510.157" stroke="white" stroke-width="1.72" stroke-linecap="round" stroke-linejoin="round"/>
<path d="M1266.25 401.796C1197.93 475.103 1090.1 499.698 971.163 483.951C794.941 460.619 712.251 372.031 564.786 340.607C436.596 313.291 259.839 326.864 8.14575 509.221" stroke="white" stroke-width="1.72" stroke-linecap="round" stroke-linejoin="round"/>
<path d="M1265.46 392.257C1197.7 472.65 1089.9 499.348 971.579 484.849C795.869 463.318 711.804 373.376 560.384 342.171C431.427 315.595 255.767 329.505 7.9856 508.282" stroke="white" stroke-width="1.72" stroke-linecap="round" stroke-linejoin="round"/>
<path d="M1264.67 382.72C1197.47 470.197 1089.7 499.003 971.996 485.752C796.795 466.026 711.366 374.709 555.982 343.739C426.259 317.885 251.694 332.149 7.8252 507.348" stroke="white" stroke-width="1.72" stroke-linecap="round" stroke-linejoin="round"/>
<path d="M1263.88 373.182C1197.24 467.744 1089.51 498.66 972.412 486.65C797.718 468.734 710.93 376.018 551.58 345.303C421.099 320.153 247.622 334.792 7.66504 506.409" stroke="white" stroke-width="1.72" stroke-linecap="round" stroke-linejoin="round"/>
<path d="M1263.08 363.643C1197.01 465.288 1089.31 498.319 972.829 487.55C798.639 471.447 710.501 377.316 547.178 346.869C415.943 322.405 243.549 337.434 7.50464 505.472" stroke="white" stroke-width="1.72" stroke-linecap="round" stroke-linejoin="round"/>
<path d="M1262.29 354.104C1196.78 462.836 1089.11 497.98 973.245 488.448C799.558 474.162 710.075 378.593 542.774 348.433C410.789 324.639 239.475 340.075 7.34229 504.534" stroke="white" stroke-width="1.72" stroke-linecap="round" stroke-linejoin="round"/>
<path d="M1261.5 344.568C1196.55 460.383 1088.91 497.646 973.663 489.351C800.477 476.885 709.652 379.859 538.374 350.002C405.642 326.862 235.405 342.719 7.18652 503.597" stroke="white" stroke-width="1.72" stroke-linecap="round" stroke-linejoin="round"/>
<path d="M1260.71 335.029C1196.32 457.927 1088.71 497.312 974.08 490.249C801.396 479.609 709.235 381.105 533.972 351.563C400.495 329.067 231.332 345.36 7.02612 502.656" stroke="white" stroke-width="1.72" stroke-linecap="round" stroke-linejoin="round"/>
<path d="M1259.91 325.49C1196.08 455.474 1088.5 496.983 974.495 491.15C802.308 482.337 708.819 382.335 529.57 353.129C395.35 331.26 227.26 348.002 6.86597 501.72" stroke="white" stroke-width="1.72" stroke-linecap="round" stroke-linejoin="round"/>
<path d="M1259.12 315.951C1195.85 453.019 1088.3 496.658 974.911 492.048C803.222 485.07 708.404 383.549 525.166 354.693C390.208 333.44 223.185 350.642 6.70337 500.781" stroke="white" stroke-width="1.72" stroke-linecap="round" stroke-linejoin="round"/>
<path d="M1258.33 306.415C1195.62 450.568 1088.09 496.335 975.329 492.95C804.134 487.81 707.995 384.749 520.766 356.261C385.07 335.615 219.115 353.289 6.54541 499.847" stroke="white" stroke-width="1.72" stroke-linecap="round" stroke-linejoin="round"/>
<path d="M1257.53 296.876C1195.39 448.113 1087.89 496.015 975.746 493.848C805.046 490.551 707.589 385.932 516.364 357.825C379.93 337.773 215.042 355.93 6.38501 498.908" stroke="white" stroke-width="1.72" stroke-linecap="round" stroke-linejoin="round"/>
<path d="M1256.74 287.337C1195.16 445.66 1087.68 495.699 976.161 494.749C805.956 493.298 707.18 387.101 511.962 359.391C374.794 339.921 210.97 358.572 6.22705 497.971" stroke="white" stroke-width="1.72" stroke-linecap="round" stroke-linejoin="round"/>
<path d="M1255.95 277.8C1194.93 443.207 1087.47 495.387 976.577 495.649C806.863 496.051 706.774 388.254 507.557 360.957C369.656 342.063 206.895 361.215 6.06445 497.035" stroke="white" stroke-width="1.72" stroke-linecap="round" stroke-linejoin="round"/>
<path d="M1255.15 268.262C1194.7 440.754 1087.26 495.076 976.995 496.55C807.773 498.809 706.372 389.391 503.158 362.524C364.522 344.193 202.825 363.86 5.90649 496.098" stroke="white" stroke-width="1.72" stroke-linecap="round" stroke-linejoin="round"/>
<path d="M1254.36 258.723C1194.47 438.299 1087.06 494.769 977.412 497.448C808.682 501.568 705.973 390.513 498.756 364.085C359.387 346.312 198.752 366.497 5.74609 495.157" stroke="white" stroke-width="1.72" stroke-linecap="round" stroke-linejoin="round"/>
<path d="M1253.57 249.184C1194.24 435.844 1086.85 494.467 977.83 498.348C809.592 504.337 705.573 391.623 494.356 365.651C354.255 348.426 194.682 369.14 5.58813 494.219" stroke="white" stroke-width="1.72" stroke-linecap="round" stroke-linejoin="round"/>
<path d="M1252.78 239.648C1194 433.393 1086.64 494.169 978.243 499.249C810.495 507.111 705.169 392.717 489.949 367.217C349.117 350.532 190.605 371.785 5.42334 493.282" stroke="white" stroke-width="1.72" stroke-linecap="round" stroke-linejoin="round"/>
<path d="M1251.98 230.109C1193.77 430.938 1086.43 493.873 978.66 500.149C811.405 509.889 704.772 393.798 485.549 368.783C343.986 352.63 186.535 374.427 5.26538 492.345" stroke="white" stroke-width="1.72" stroke-linecap="round" stroke-linejoin="round"/>
<path d="M1251.19 220.57C1193.54 428.485 1086.23 493.58 979.078 501.047C812.315 512.671 704.374 394.861 481.148 370.347C338.853 354.72 182.463 377.068 5.10742 491.407" stroke="white" stroke-width="1.72" stroke-linecap="round" stroke-linejoin="round"/>
<path d="M1250.4 211.031C1193.31 426.03 1086.02 493.289 979.496 501.948C813.225 515.46 703.977 395.915 476.745 371.913C333.717 356.805 178.39 379.71 4.94702 490.47" stroke="white" stroke-width="1.72" stroke-linecap="round" stroke-linejoin="round"/>
<path d="M1249.61 201.495C1193.08 423.579 1085.81 493.007 979.911 502.848C814.132 518.254 703.578 396.953 472.343 373.48C328.584 358.886 174.318 382.355 4.78687 489.534" stroke="white" stroke-width="1.72" stroke-linecap="round" stroke-linejoin="round"/>
<path d="M1248.81 191.956C1192.85 421.124 1085.61 492.725 980.327 503.748C815.04 521.054 703.18 397.98 467.939 375.046C323.448 360.96 170.243 384.997 4.62427 488.597" stroke="white" stroke-width="1.72" stroke-linecap="round" stroke-linejoin="round"/>
<path d="M1248.02 182.417C1192.62 418.669 1085.4 492.445 980.744 504.646C815.952 523.859 702.783 398.989 463.539 376.61C318.315 363.025 166.173 387.638 4.46631 487.658" stroke="white" stroke-width="1.72" stroke-linecap="round" stroke-linejoin="round"/>
<path d="M1247.23 172.878C1192.39 416.216 1085.19 492.169 981.162 505.547C816.866 526.671 702.388 399.988 459.137 378.173C313.181 365.085 162.1 390.28 4.30591 486.72" stroke="white" stroke-width="1.72" stroke-linecap="round" stroke-linejoin="round"/>
<path d="M1246.43 163.342C1192.16 413.763 1084.99 491.901 981.577 506.447C817.778 529.49 701.988 400.974 454.735 379.739C308.045 367.141 158.028 392.923 4.14575 485.783" stroke="white" stroke-width="1.72" stroke-linecap="round" stroke-linejoin="round"/>
<path d="M1245.64 153.803C1191.93 411.31 1084.79 491.632 981.995 507.348C818.694 532.313 701.591 401.949 450.333 381.306C302.909 369.194 153.955 395.565 3.98755 484.847" stroke="white" stroke-width="1.72" stroke-linecap="round" stroke-linejoin="round"/>
<path d="M1244.85 144.264C1191.69 408.855 1084.59 491.366 982.41 508.246C819.611 535.14 701.191 402.908 445.931 382.869C297.772 371.239 149.883 398.205 3.82739 483.906" stroke="white" stroke-width="1.72" stroke-linecap="round" stroke-linejoin="round"/>
<path d="M1244.05 134.725C1191.46 406.402 1084.39 491.107 982.828 509.146C820.53 537.975 700.794 403.856 441.529 384.435C292.636 373.281 145.81 400.85 3.66699 482.969" stroke="white" stroke-width="1.72" stroke-linecap="round" stroke-linejoin="round"/>
<path d="M1243.26 125.189C1191.23 403.949 1084.19 490.849 983.243 510.047C821.451 540.816 700.394 404.793 437.127 386.002C287.498 375.321 141.738 403.493 3.50684 482.033" stroke="white" stroke-width="1.72" stroke-linecap="round" stroke-linejoin="round"/>
<path d="M1242.47 115.65C1191 401.496 1083.99 490.594 983.661 510.947C822.376 543.661 699.995 405.718 432.725 387.568C282.36 377.356 137.665 406.135 3.34644 481.096" stroke="white" stroke-width="1.72" stroke-linecap="round" stroke-linejoin="round"/>
<path d="M1241.68 106.111C1190.77 399.04 1083.79 490.344 984.076 511.845C823.302 546.512 699.593 406.629 428.323 389.132C277.22 379.385 133.593 408.778 3.18628 480.157" stroke="white" stroke-width="1.72" stroke-linecap="round" stroke-linejoin="round"/>
<path d="M1240.88 96.5724C1190.54 396.585 1083.6 490.096 984.494 512.745C824.232 549.371 699.193 407.532 423.921 390.695C272.079 381.409 129.52 411.418 3.02808 479.219" stroke="white" stroke-width="1.72" stroke-linecap="round" stroke-linejoin="round"/>
<path d="M1240.09 87.0359C1190.31 394.135 1083.41 489.854 984.909 513.646C825.164 552.234 698.792 408.421 419.519 392.262C266.937 383.434 125.448 414.061 2.86792 478.282" stroke="white" stroke-width="1.72" stroke-linecap="round" stroke-linejoin="round"/>
<path d="M1239.3 77.4971C1190.08 391.679 1083.22 489.611 985.327 514.546C826.101 555.103 698.39 409.301 415.117 393.828C261.797 385.453 121.376 416.703 2.70776 477.346" stroke="white" stroke-width="1.72" stroke-linecap="round" stroke-linejoin="round"/>
<path d="M1238.51 67.9583C1189.85 389.226 1083.03 489.374 985.744 515.445C827.043 557.975 697.988 410.168 410.715 395.392C256.652 387.468 117.301 419.346 2.54736 476.407" stroke="white" stroke-width="1.72" stroke-linecap="round" stroke-linejoin="round"/>
<path d="M1237.71 58.4195C1189.61 386.771 1082.84 489.137 986.16 516.345C827.986 560.855 697.582 411.023 406.313 396.958C251.509 389.481 113.229 421.988 2.38721 475.47" stroke="white" stroke-width="1.72" stroke-linecap="round" stroke-linejoin="round"/>
<path d="M1236.92 48.8829C1189.38 384.32 1082.66 488.906 986.575 517.245C828.934 563.739 697.175 411.872 401.908 398.524C246.362 391.492 109.154 424.631 2.22461 474.532" stroke="white" stroke-width="1.72" stroke-linecap="round" stroke-linejoin="round"/>
<path d="M1236.13 39.3441C1189.15 381.865 1082.48 488.676 986.993 518.143C829.887 566.627 696.769 412.704 397.508 400.087C241.218 393.498 105.083 427.273 2.06641 473.593" stroke="white" stroke-width="1.72" stroke-linecap="round" stroke-linejoin="round"/>
<path d="M1235.33 29.8054C1188.92 379.41 1082.3 488.448 987.41 519.044C830.844 569.522 696.363 413.53 393.106 401.654C236.071 395.502 101.011 429.916 1.90845 472.656" stroke="white" stroke-width="1.72" stroke-linecap="round" stroke-linejoin="round"/>
<path d="M1234.54 20.2665C1188.69 376.957 1082.18 488.376 987.828 519.942C831.894 572.673 695.956 414.343 388.707 403.215C230.926 397.501 96.9409 432.554 1.75049 471.715" stroke="white" stroke-width="1.72" stroke-linecap="round" stroke-linejoin="round"/>
<path d="M1233.75 10.73C1188.46 374.504 1081.98 488.08 988.241 520.845C832.815 575.457 695.552 414.832 384.3 404.784C225.777 399.341 92.8639 435.198 1.58569 470.781" stroke="white" stroke-width="1.72" stroke-linecap="round" stroke-linejoin="round"/>
<path d="M1232.95 1.19128C1188.23 372.051 1081.79 487.783 988.659 521.743C833.743 578.235 695.132 415.943 379.9 406.347C220.625 401.498 88.7938 437.841 1.42773 469.842" stroke="white" stroke-width="1.72" stroke-linecap="round" stroke-linejoin="round"/>
<path d="M1234.6 8.8074C1186.95 366.13 1079.76 478.386 986.521 511.827C831.42 567.453 694.36 412.364 379.756 405.675C220.797 402.295 88.9021 438.34 1.42993 469.847" stroke="white" stroke-width="1.72" stroke-linecap="round" stroke-linejoin="round"/>
<path d="M1236.24 16.4213C1185.67 360.208 1077.73 468.987 984.381 501.907C829.092 556.669 693.588 408.78 379.609 404.996C220.966 403.084 89.0082 438.832 1.42993 469.847" stroke="white" stroke-width="1.72" stroke-linecap="round" stroke-linejoin="round"/>
<path d="M1237.88 24.0374C1184.39 354.289 1075.7 459.59 982.241 491.989C826.765 545.884 692.814 405.196 379.462 404.319C221.137 403.874 89.1143 439.326 1.42773 469.847" stroke="white" stroke-width="1.72" stroke-linecap="round" stroke-linejoin="round"/>
<path d="M1239.53 31.6536C1183.12 348.37 1073.68 450.194 980.101 482.073C824.437 535.104 692.042 401.617 379.316 403.646C221.307 404.671 89.2204 439.825 1.42773 469.854" stroke="white" stroke-width="1.72" stroke-linecap="round" stroke-linejoin="round"/>
<path d="M1241.17 39.2697C1181.84 342.449 1071.65 440.797 977.963 472.155C822.114 524.32 691.27 398.034 379.173 402.969C221.48 405.463 89.3309 440.319 1.43213 469.854" stroke="white" stroke-width="1.72" stroke-linecap="round" stroke-linejoin="round"/>
<path d="M1242.81 46.8836C1180.56 336.527 1069.62 431.398 975.823 462.235C819.787 513.535 690.498 394.45 379.027 402.29C221.652 406.25 89.437 440.811 1.43213 469.851" stroke="white" stroke-width="1.72" stroke-linecap="round" stroke-linejoin="round"/>
<path d="M1244.45 54.4998C1179.29 330.608 1067.6 422.002 973.683 452.32C817.46 502.753 689.723 390.871 378.88 401.618C221.821 407.047 89.5431 441.309 1.43213 469.858" stroke="white" stroke-width="1.72" stroke-linecap="round" stroke-linejoin="round"/>
<path d="M1246.1 62.1159C1178.01 324.689 1065.57 412.603 971.543 442.402C815.134 491.971 688.951 387.288 378.733 400.941C221.991 407.839 89.6493 441.806 1.42993 469.858" stroke="white" stroke-width="1.72" stroke-linecap="round" stroke-linejoin="round"/>
<path d="M1247.74 69.7321C1176.73 318.767 1063.54 403.206 969.405 432.484C812.809 481.186 688.179 383.707 378.589 400.264C222.165 408.629 89.7576 442.3 1.43213 469.861" stroke="white" stroke-width="1.72" stroke-linecap="round" stroke-linejoin="round"/>
<path d="M1249.38 77.3459C1175.45 312.846 1061.52 393.807 967.265 422.566C810.482 470.402 687.405 380.123 378.442 399.589C222.334 409.423 89.8637 442.797 1.43213 469.863" stroke="white" stroke-width="1.72" stroke-linecap="round" stroke-linejoin="round"/>
<path d="M1251.03 84.962C1174.18 306.927 1059.49 384.411 965.125 412.648C808.154 459.62 686.633 376.542 378.295 398.912C222.503 410.215 89.9698 443.291 1.43213 469.865" stroke="white" stroke-width="1.72" stroke-linecap="round" stroke-linejoin="round"/>
<path d="M1252.67 92.5782C1172.9 301.005 1057.46 375.014 962.985 402.732C805.829 448.838 685.859 372.963 378.151 398.239C222.677 411.01 90.0782 443.789 1.43213 469.869" stroke="white" stroke-width="1.72" stroke-linecap="round" stroke-linejoin="round"/>
<path d="M1254.31 100.194C1171.62 295.086 1055.43 365.617 960.847 392.814C803.504 438.055 685.089 369.379 378.006 397.562C222.848 411.802 90.1864 444.284 1.43433 469.869" stroke="white" stroke-width="1.72" stroke-linecap="round" stroke-linejoin="round"/>
<path d="M1255.96 107.81C1170.35 289.167 1053.41 356.221 958.707 382.897C801.177 427.271 684.315 365.798 377.859 396.885C223.018 412.594 90.2926 444.778 1.43433 469.872" stroke="white" stroke-width="1.72" stroke-linecap="round" stroke-linejoin="round"/>
<path d="M1257.6 115.424C1169.07 283.246 1051.38 346.822 956.567 372.979C798.851 416.489 683.542 362.214 377.713 396.211C223.187 413.386 90.3964 445.274 1.43433 469.874" stroke="white" stroke-width="1.72" stroke-linecap="round" stroke-linejoin="round"/>
<path d="M1259.24 123.041C1167.79 277.324 1049.35 337.425 954.427 363.061C796.524 405.704 682.768 358.633 377.566 395.534C223.359 414.178 90.5025 445.769 1.43433 469.876" stroke="white" stroke-width="1.72" stroke-linecap="round" stroke-linejoin="round"/>
<path d="M1260.88 130.657C1166.52 271.405 1047.32 328.029 952.289 353.143C794.199 394.922 681.998 355.052 377.422 394.857C223.53 414.97 90.6109 446.263 1.43433 469.876" stroke="white" stroke-width="1.72" stroke-linecap="round" stroke-linejoin="round"/>
<path d="M1262.53 138.273C1165.24 265.486 1045.3 318.632 950.149 343.227C791.871 384.14 681.224 351.471 377.275 394.184C223.7 415.764 90.717 446.761 1.43433 469.883" stroke="white" stroke-width="1.72" stroke-linecap="round" stroke-linejoin="round"/>
<path d="M1264.17 145.887C1163.96 259.562 1043.27 309.233 948.011 333.307C789.548 373.353 680.454 347.887 377.133 393.505C223.876 416.554 90.8277 447.256 1.43896 469.881" stroke="white" stroke-width="1.72" stroke-linecap="round" stroke-linejoin="round"/>
<path d="M1265.81 153.503C1162.68 253.643 1041.24 299.834 945.869 323.389C787.219 362.571 679.678 344.303 376.984 392.828C224.043 417.346 90.9316 447.75 1.43677 469.881" stroke="white" stroke-width="1.72" stroke-linecap="round" stroke-linejoin="round"/>
<path d="M1267.46 161.119C1161.41 247.724 1039.21 290.438 943.731 313.473C784.893 351.789 678.906 340.724 376.839 392.155C224.214 418.141 91.0399 448.249 1.43896 469.887" stroke="white" stroke-width="1.72" stroke-linecap="round" stroke-linejoin="round"/>
<path d="M1269.1 168.735C1160.13 241.805 1037.19 281.041 941.591 303.555C782.568 341.007 678.134 337.143 376.692 391.478C224.386 418.933 91.1461 448.743 1.43677 469.887" stroke="white" stroke-width="1.72" stroke-linecap="round" stroke-linejoin="round"/>
<path d="M1270.74 176.349C1158.85 235.881 1035.16 271.642 939.453 293.635C780.243 330.22 677.362 333.557 376.548 390.801C224.558 419.725 91.2544 449.237 1.43896 469.89" stroke="white" stroke-width="1.72" stroke-linecap="round" stroke-linejoin="round"/>
<path d="M1272.38 183.965C1157.57 229.962 1033.13 262.245 937.311 283.72C777.913 319.44 676.587 329.978 376.399 390.127C224.725 420.517 91.3583 449.733 1.43677 469.892" stroke="white" stroke-width="1.72" stroke-linecap="round" stroke-linejoin="round"/>
<path d="M1274.03 191.581C1156.3 224.043 1031.11 252.849 935.173 273.802C775.59 308.655 675.815 326.395 376.257 389.45C224.901 421.309 91.4688 450.228 1.44116 469.894" stroke="white" stroke-width="1.72" stroke-linecap="round" stroke-linejoin="round"/>
<path d="M1275.67 199.197C1155.02 218.124 1029.08 243.452 933.033 263.884C773.263 297.873 675.043 322.814 376.11 388.775C225.07 422.103 91.5749 450.724 1.43896 469.896" stroke="white" stroke-width="1.72" stroke-linecap="round" stroke-linejoin="round"/>
<path d="M1277.31 206.811C1153.74 212.2 1027.05 234.053 930.895 253.966C770.938 287.089 674.271 319.23 375.965 388.098C225.241 422.893 91.6832 451.218 1.44116 469.896" stroke="white" stroke-width="1.72" stroke-linecap="round" stroke-linejoin="round"/>
<path d="M1278.95 214.427C1152.46 206.281 1025.02 224.657 928.753 244.048C768.608 276.304 673.497 315.649 375.816 387.421C225.411 423.685 91.7871 451.713 1.43896 469.899" stroke="white" stroke-width="1.72" stroke-linecap="round" stroke-linejoin="round"/>
<path d="M1280.6 222.044C1151.19 200.362 1023 215.26 926.615 234.13C766.285 265.522 672.725 312.068 375.672 386.746C225.582 424.48 91.8954 452.209 1.44116 469.901" stroke="white" stroke-width="1.72" stroke-linecap="round" stroke-linejoin="round"/>
<path d="M1282.24 229.66C1149.91 194.44 1020.97 205.864 924.475 224.214C763.958 254.74 671.95 308.486 375.525 386.072C225.752 425.272 92.0015 452.708 1.44116 469.906" stroke="white" stroke-width="1.72" stroke-linecap="round" stroke-linejoin="round"/>
<path d="M1283.89 237.274C1148.64 188.519 1018.94 196.465 922.337 214.294C761.632 243.956 671.18 304.903 375.381 385.392C225.923 426.061 92.1099 453.2 1.44116 469.903" stroke="white" stroke-width="1.72" stroke-linecap="round" stroke-linejoin="round"/>
<path d="M1285.53 244.89C1147.36 182.6 1016.92 187.068 920.194 204.376C759.305 233.171 670.404 301.319 375.234 384.718C226.095 426.856 92.2137 453.696 1.44116 469.906" stroke="white" stroke-width="1.72" stroke-linecap="round" stroke-linejoin="round"/>
<path d="M1287.17 252.506C1146.08 176.681 1014.89 177.669 918.057 194.461C756.98 222.391 669.634 297.74 375.089 384.043C226.266 427.648 92.322 454.193 1.44336 469.91" stroke="white" stroke-width="1.72" stroke-linecap="round" stroke-linejoin="round"/>
<path d="M1288.81 260.122C1144.8 170.759 1012.86 168.272 915.916 184.543C754.652 211.607 668.86 294.159 374.943 383.366C226.436 428.44 92.4281 454.687 1.44336 469.91" stroke="white" stroke-width="1.72" stroke-linecap="round" stroke-linejoin="round"/>
<path d="M1290.46 267.736C1143.53 164.838 1010.83 158.874 913.779 174.623C752.327 200.82 668.09 290.573 374.798 382.689C226.609 429.232 92.5364 455.181 1.44556 469.912" stroke="white" stroke-width="1.72" stroke-linecap="round" stroke-linejoin="round"/>
<path d="M1292.1 275.352C1142.25 158.919 1008.81 149.477 911.636 164.707C750 190.04 667.314 286.994 374.649 382.014C226.776 430.024 92.6404 455.677 1.44116 469.915" stroke="white" stroke-width="1.72" stroke-linecap="round" stroke-linejoin="round"/>
<path d="M1293.74 282.968C1140.97 153 1006.78 140.08 909.499 154.789C747.675 179.256 666.544 283.411 374.505 381.339C226.948 430.818 92.7487 456.174 1.44336 469.919" stroke="white" stroke-width="1.72" stroke-linecap="round" stroke-linejoin="round"/>
<path d="M1295.38 290.584C1139.69 147.078 1004.75 130.684 907.359 144.871C745.347 168.473 665.769 279.829 374.358 380.662C227.12 431.611 92.8548 456.668 1.44336 469.919" stroke="white" stroke-width="1.72" stroke-linecap="round" stroke-linejoin="round"/>
<path d="M1297.03 298.198C1138.42 141.157 1002.73 121.285 905.221 134.953C743.024 157.689 664.997 276.248 374.216 379.985C227.294 432.4 92.9655 457.162 1.448 469.919" stroke="white" stroke-width="1.72" stroke-linecap="round" stroke-linejoin="round"/>
<path d="M1298.67 305.814C1137.14 135.238 1000.7 111.888 903.078 125.035C740.694 146.907 664.223 272.664 374.067 379.311C227.46 433.195 93.0692 457.659 1.44336 469.924" stroke="white" stroke-width="1.72" stroke-linecap="round" stroke-linejoin="round"/>
<path d="M1300.31 313.43C1135.86 129.316 998.671 102.492 900.94 115.117C738.369 136.122 663.451 269.083 373.922 378.634C227.634 433.987 93.1775 458.155 1.44556 469.924" stroke="white" stroke-width="1.72" stroke-linecap="round" stroke-linejoin="round"/>
<path d="M1301.96 321.047C1134.59 123.397 996.643 93.0949 898.8 105.202C736.042 125.342 662.679 265.502 373.776 377.959C227.804 434.779 93.2836 458.652 1.44556 469.928" stroke="white" stroke-width="1.72" stroke-linecap="round" stroke-linejoin="round"/>
<path d="M1303.6 328.661C1133.31 117.476 994.616 83.6961 896.663 95.2816C733.719 114.556 661.907 261.918 373.631 377.282C227.975 435.571 93.3922 459.146 1.448 469.928" stroke="white" stroke-width="1.72" stroke-linecap="round" stroke-linejoin="round"/>
<path d="M1305.24 336.277C1132.03 111.556 992.587 74.2995 894.52 85.3637C731.389 103.771 661.133 258.337 373.482 376.605C228.144 436.363 93.4958 459.64 1.44556 469.93" stroke="white" stroke-width="1.72" stroke-linecap="round" stroke-linejoin="round"/>
<path d="M1306.88 343.893C1130.75 105.635 990.562 64.9006 892.382 75.4481C729.064 92.9912 660.361 254.756 373.34 375.93C228.318 437.155 93.6066 460.137 1.448 469.933" stroke="white" stroke-width="1.72" stroke-linecap="round" stroke-linejoin="round"/>
<path d="M1308.53 351.509C1129.48 99.7159 988.535 55.5039 890.243 65.5302C726.739 82.2067 659.589 251.175 373.193 375.256C228.488 437.949 93.7127 460.633 1.448 469.935" stroke="white" stroke-width="1.72" stroke-linecap="round" stroke-linejoin="round"/>
<path d="M1310.17 359.125C1128.2 93.7968 986.508 46.1073 888.105 55.6122C724.414 71.4245 658.817 247.591 373.049 374.579C228.659 438.741 93.821 461.127 1.4502 469.937" stroke="white" stroke-width="1.72" stroke-linecap="round" stroke-linejoin="round"/>
<path d="M1311.81 366.739C1126.92 87.8731 984.478 36.7084 885.962 45.6943C722.084 60.64 658.04 244.01 372.9 373.904C228.829 439.533 93.9249 461.624 1.448 469.939" stroke="white" stroke-width="1.72" stroke-linecap="round" stroke-linejoin="round"/>
<path d="M1313.46 374.355C1125.65 81.9539 982.453 27.3117 883.825 35.7764C719.759 49.8578 657.27 240.426 372.755 373.227C229 440.326 94.031 462.118 1.4502 469.942" stroke="white" stroke-width="1.72" stroke-linecap="round" stroke-linejoin="round"/>
<path d="M1315.1 381.971C1124.37 76.0348 980.426 17.9152 881.684 25.8608C717.434 39.0756 656.496 236.847 372.609 372.552C229.169 441.12 94.1371 462.614 1.448 469.944" stroke="white" stroke-width="1.72" stroke-linecap="round" stroke-linejoin="round"/>
<path d="M1316.74 389.587C1123.09 70.1156 978.399 8.5185 879.547 15.9428C715.109 28.2934 655.726 233.266 372.464 371.877C229.343 441.912 94.2454 463.111 1.4502 469.948" stroke="white" stroke-width="1.72" stroke-linecap="round" stroke-linejoin="round"/>
</g>
</svg>
