<svg width="685" height="298" viewBox="0 0 685 298" fill="none" xmlns="http://www.w3.org/2000/svg">
<g opacity="0.53">
<path d="M-463 48.2647C-405.699 78.6209 -325.665 108.02 -248.889 82.2067C-153.312 50.07 -149.549 -50.0637 -63.6888 -59.5935C41.7212 -71.2941 96.3451 25.01 214.674 49.2102C292.844 65.1962 409.177 51.8346 573.911 -81.7807" stroke="white" stroke-width="1.36" stroke-linecap="round" stroke-linejoin="round"/>
<path d="M-458.957 53.1345C-401.809 82.658 -322.012 111.06 -245.326 84.9305C-231.039 80.0742 -218.779 73.706 -207.972 66.3493C-146.811 24.7167 -132.647 -48.1681 -60.4741 -56.8449C-8.78954 -63.195 30.628 -43.6052 71.637 -19.378C113.508 5.44728 157.046 35.0769 216.853 46.834C295.128 62.17 411.43 49.1357 576.072 -80.9773" stroke="white" stroke-width="1.36" stroke-linecap="round" stroke-linejoin="round"/>
<path d="M-454.916 58.0043C-397.922 86.6974 -318.36 114.097 -241.764 87.6565C-227.544 82.7731 -215.311 76.3959 -204.502 69.0415C-143.294 27.4043 -128.618 -44.6545 -57.2595 -54.0918C-5.98574 -60.873 33.1271 -42.443 74.0233 -19.2381C115.712 4.59201 159.247 33.1836 219.036 44.4645C297.415 59.1507 413.688 46.4436 578.234 -80.1672" stroke="white" stroke-width="1.36" stroke-linecap="round" stroke-linejoin="round"/>
<path d="M-450.873 62.8741C-394.035 90.7368 -314.705 117.137 -238.202 90.3802C-224.052 85.4676 -211.846 79.0835 -201.033 71.7314C-139.774 30.0897 -124.597 -41.2402 -54.0449 -51.3432C-3.1911 -58.6254 35.6802 -41.3824 76.4071 -19.1027C117.967 3.63294 161.443 31.288 221.214 42.0905C299.699 56.129 415.941 43.7469 580.395 -79.3616" stroke="white" stroke-width="1.36" stroke-linecap="round" stroke-linejoin="round"/>
<path d="M-446.83 67.7439C-390.145 94.7762 -311.053 120.175 -234.637 93.1063C-220.555 88.1642 -208.376 81.7734 -197.559 74.4258C-136.253 32.7796 -120.572 -37.8237 -50.8258 -48.5878C-0.389617 -56.3732 38.1972 -40.2518 78.7976 -18.9605C120.19 2.74834 163.649 29.3969 223.402 39.7233C301.991 53.1119 418.203 41.0547 582.564 -78.5492" stroke="white" stroke-width="1.36" stroke-linecap="round" stroke-linejoin="round"/>
<path d="M-442.787 72.616C-386.258 98.8178 -307.398 123.217 -231.073 95.8323C-217.061 90.8632 -204.907 84.4633 -194.087 77.118C-132.733 35.4673 -116.549 -34.4117 -47.6088 -45.837C2.40979 -54.1256 40.7122 -39.1235 81.1839 -18.8206C122.407 1.85922 165.848 27.5036 225.582 37.3538C304.278 50.0925 420.458 38.3625 584.724 -77.7391" stroke="white" stroke-width="1.36" stroke-linecap="round" stroke-linejoin="round"/>
<path d="M-438.746 77.4858C-382.37 102.857 -303.806 126.091 -227.513 98.5583C-213.58 93.5305 -201.441 87.1533 -190.619 79.8102C-129.216 38.1549 -112.527 -31.0041 -44.3965 -43.0839C5.20668 -51.878 43.2223 -37.9952 83.5677 -18.6807C124.622 0.970106 168.046 25.6126 227.763 34.9866C306.564 47.0754 422.713 35.6726 586.887 -76.9267" stroke="white" stroke-width="1.36" stroke-linecap="round" stroke-linejoin="round"/>
<path d="M-434.703 82.3556C-378.481 106.897 -300.16 129.106 -223.948 101.284C-210.085 96.2226 -197.974 89.8431 -187.147 82.5023C-125.697 40.8426 -108.499 -27.6011 -41.182 -40.3331C8.00587 -49.6349 45.7303 -36.8669 85.9515 -18.543C126.832 0.0809967 170.245 23.717 229.941 32.6149C308.847 44.0538 424.966 32.9782 589.047 -76.1188" stroke="white" stroke-width="1.36" stroke-linecap="round" stroke-linejoin="round"/>
<path d="M-430.66 87.2255C-374.593 110.934 -296.517 132.123 -220.386 104.008C-206.593 98.9148 -194.506 92.5308 -183.675 85.1945C-122.177 43.5302 -104.472 -24.2004 -37.965 -37.58C10.8098 -47.3918 48.2407 -35.7386 88.34 -18.4031C129.047 -0.805857 172.428 21.9568 232.127 30.2454C311.113 41.2104 427.226 30.2861 591.212 -75.3087" stroke="white" stroke-width="1.36" stroke-linecap="round" stroke-linejoin="round"/>
<path d="M-426.619 92.0953C-370.706 114.973 -292.873 135.141 -216.824 106.734C-203.103 101.609 -191.039 95.223 -180.205 87.8866C-118.66 46.2179 -100.445 -20.8019 -34.7504 -34.8291C13.6112 -45.1555 50.7464 -34.6102 90.7238 -18.2654C131.257 -1.69497 174.625 20.0748 234.305 27.8737C313.395 38.2068 429.479 27.5916 593.373 -74.5008" stroke="white" stroke-width="1.36" stroke-linecap="round" stroke-linejoin="round"/>
<path d="M-422.576 96.9651C-366.816 119.012 -289.227 138.16 -213.259 109.458C-199.608 104.301 -187.572 97.9106 -176.734 90.5766C-115.139 48.9033 -96.4153 -17.4102 -31.5336 -32.0783C16.4172 -42.9192 53.2522 -33.4819 93.1123 -18.1278C133.467 -2.58409 176.828 18.1928 236.49 25.502C315.687 35.2033 431.738 24.8972 595.538 -73.6929" stroke="white" stroke-width="1.36" stroke-linecap="round" stroke-linejoin="round"/>
<path d="M-418.532 101.835C-362.929 123.052 -285.581 141.179 -209.697 112.184C-196.116 106.994 -184.104 100.601 -173.261 93.2687C-111.619 51.5909 -92.3834 -14.0207 -28.3166 -29.3252C19.2233 -40.6828 55.7581 -32.3491 95.4985 -17.9879C135.675 -3.47094 179.027 16.313 238.671 23.1325C317.971 32.1997 433.994 22.2028 597.7 -72.8828" stroke="white" stroke-width="1.36" stroke-linecap="round" stroke-linejoin="round"/>
<path d="M-414.492 106.705C-359.042 127.091 -281.938 144.201 -206.135 114.908C-192.624 109.688 -180.637 103.288 -169.792 95.9609C-108.102 54.2808 -88.3539 -10.6358 -25.1021 -26.5744C22.027 -38.451 58.257 -31.2208 97.8845 -17.8502C137.88 -4.35782 181.228 14.4287 240.854 20.7608C320.26 29.1938 436.251 19.5084 599.865 -72.0749" stroke="white" stroke-width="1.36" stroke-linecap="round" stroke-linejoin="round"/>
<path d="M-410.448 111.575C-355.152 131.131 -278.292 147.223 -202.57 117.634C-189.129 112.382 -177.167 105.978 -166.32 98.6531C-104.58 56.9685 -84.3197 -7.25306 -21.885 -23.8213C24.8354 -36.2215 60.7584 -30.0879 100.271 -17.7103C140.083 -5.24014 183.429 12.5467 243.035 18.3913C322.547 26.188 438.506 16.8162 602.026 -71.2648" stroke="white" stroke-width="1.36" stroke-linecap="round" stroke-linejoin="round"/>
<path d="M-406.405 116.444C-351.265 135.17 -274.646 150.246 -199.008 120.36C-185.637 115.077 -173.702 108.668 -162.85 101.345C-101.063 59.6561 -80.2901 -3.87488 -18.6705 -21.0704C27.6414 -33.9942 63.2551 -28.9551 102.657 -17.5727C142.284 -6.12474 185.63 10.6601 245.216 16.0196C324.834 23.1799 440.762 14.1218 604.188 -70.4569" stroke="white" stroke-width="1.36" stroke-linecap="round" stroke-linejoin="round"/>
<path d="M-402.362 121.314C-347.375 139.207 -270.998 153.27 -195.443 123.083C-182.142 117.769 -170.232 111.356 -159.376 104.035C-97.5417 62.3416 -76.2539 -0.50347 -15.4514 -18.3196C30.4541 -31.7714 65.7541 -27.8223 105.045 -17.435C144.485 -7.00935 187.833 8.77581 247.401 13.6479C327.125 20.1696 443.021 11.4274 606.355 -69.649" stroke="white" stroke-width="1.36" stroke-linecap="round" stroke-linejoin="round"/>
<path d="M-398.321 126.184C-343.488 143.246 -267.355 156.297 -191.883 125.809C-178.652 120.466 -166.767 114.046 -155.908 106.727C-94.0245 65.0292 -72.2242 2.86569 -12.2412 -15.5688C33.2557 -29.5509 68.2441 -26.6872 107.427 -17.2974C146.68 -7.8917 190.03 6.887 249.577 11.2762C329.408 17.1592 445.272 8.73294 608.511 -68.8411" stroke="white" stroke-width="1.36" stroke-linecap="round" stroke-linejoin="round"/>
<path d="M-394.278 131.054C-339.6 147.286 -263.707 159.323 -188.319 128.533C-175.158 123.158 -163.297 116.733 -152.436 109.419C-90.5052 67.7168 -68.1901 6.23032 -9.0243 -12.8157C36.0663 -27.3326 70.7386 -25.5499 109.813 -17.1574C148.876 -8.76953 192.231 5.00271 251.76 8.90669C331.699 14.1511 447.529 6.04077 610.676 -68.031" stroke="white" stroke-width="1.36" stroke-linecap="round" stroke-linejoin="round"/>
<path d="M-390.235 135.924C-335.711 151.325 -260.059 162.351 -184.754 131.259C-171.663 125.855 -159.83 119.425 -148.964 112.112C-86.9858 70.4045 -64.1561 9.59045 -5.80748 -10.0648C38.8767 -25.1166 73.2308 -24.4125 112.201 -17.0198C151.073 -9.64735 194.434 3.1139 253.943 6.53496C333.988 11.1385 449.787 3.34408 612.841 -67.2231" stroke="white" stroke-width="1.36" stroke-linecap="round" stroke-linejoin="round"/>
<path d="M-386.194 140.793C-331.823 155.365 -256.413 165.379 -181.194 133.983C-168.173 128.549 -156.364 122.113 -145.495 114.802C-83.4686 73.0899 -60.1242 12.9461 -2.5928 -7.314C41.6828 -22.9073 75.7186 -23.2729 114.585 -16.8821C153.265 -10.5229 196.633 1.2251 256.124 4.1655C336.277 8.12815 452.042 0.651925 615.001 -66.413" stroke="white" stroke-width="1.36" stroke-linecap="round" stroke-linejoin="round"/>
<path d="M-382.151 145.663C-327.936 159.404 -252.765 168.41 -177.63 136.709C-164.679 131.246 -152.895 124.803 -142.023 117.494C-79.9471 75.7776 -56.0902 16.2972 0.624003 -4.56316C44.4933 -20.6981 78.2085 -22.1311 116.974 -16.7445C155.459 -11.3985 198.838 -0.665946 258.307 1.79379C338.568 5.1133 454.299 -2.04249 617.166 -65.6051" stroke="white" stroke-width="1.36" stroke-linecap="round" stroke-linejoin="round"/>
<path d="M-378.108 150.533C-324.046 163.443 -249.115 171.443 -174.067 139.435C-161.186 133.94 -149.427 127.493 -138.553 120.188C-76.4299 78.4675 -52.0584 19.646 3.83865 -1.8078C47.3016 -18.4888 80.6939 -20.9824 119.358 -16.6023C157.646 -12.265 201.037 -2.5525 260.487 -0.573432C340.855 2.10068 456.555 -4.7324 619.327 -64.7927" stroke="white" stroke-width="1.36" stroke-linecap="round" stroke-linejoin="round"/>
<path d="M-374.067 155.403C-320.161 167.483 -245.469 174.476 -170.505 142.159C-157.694 136.637 -145.962 130.181 -135.083 122.878C-72.9128 81.1529 -48.0288 22.9858 7.0533 0.940776C50.1076 -16.2909 83.1794 -19.8383 121.744 -16.4669C159.836 -13.1384 203.238 -4.44581 262.668 -2.9474C343.144 -0.918687 458.81 -7.42908 621.489 -63.9871" stroke="white" stroke-width="1.36" stroke-linecap="round" stroke-linejoin="round"/>
<path d="M-370.024 160.273C-316.272 171.52 -241.818 177.509 -166.941 144.885C-154.199 139.333 -142.492 132.87 -131.609 125.57C-69.3889 83.8405 -43.9947 26.3234 10.2724 3.69387C52.9182 -14.0907 85.6672 -18.6874 124.132 -16.327C162.028 -14.0027 205.444 -6.33687 264.853 -5.31687C345.438 -3.93355 461.07 -10.1213 623.657 -63.177" stroke="white" stroke-width="1.36" stroke-linecap="round" stroke-linejoin="round"/>
<path d="M-365.981 165.143C-312.382 175.559 -238.168 180.544 -163.378 147.609C-150.705 142.028 -139.025 135.558 -128.139 128.26C-65.8718 86.5259 -39.9652 29.6542 13.487 6.44245C55.7242 -11.8972 88.1504 -17.5388 126.516 -16.1916C164.213 -14.8692 207.642 -8.23244 267.032 -7.69085C347.725 -6.95519 463.322 -12.8179 625.815 -62.3714" stroke="white" stroke-width="1.36" stroke-linecap="round" stroke-linejoin="round"/>
<path d="M-361.938 170.012C-308.495 179.599 -234.516 183.582 -159.814 150.335C-147.21 144.725 -135.557 138.248 -124.667 130.955C-62.3524 89.2158 -35.9379 32.9827 16.7016 9.19781C58.5301 -9.70376 90.6335 -16.3789 128.902 -16.0494C166.401 -15.7267 209.846 -10.1235 269.215 -10.0581C350.014 -9.97005 465.58 -15.5101 627.98 -61.559" stroke="white" stroke-width="1.36" stroke-linecap="round" stroke-linejoin="round"/>
<path d="M-357.897 174.882C-304.607 183.638 -230.867 186.619 -156.254 153.061C-143.72 147.423 -132.092 140.938 -121.2 133.647C-58.8352 91.9035 -31.9127 36.3068 19.9141 11.9486C61.3318 -7.51483 93.1123 -15.2235 131.284 -15.9118C168.582 -16.5842 212.042 -12.0168 271.391 -12.4298C352.298 -12.9917 467.831 -18.2045 630.138 -60.7511" stroke="white" stroke-width="1.36" stroke-linecap="round" stroke-linejoin="round"/>
<path d="M-353.854 179.752C-300.718 187.677 -227.215 189.659 -152.689 155.784C-140.224 150.118 -128.622 143.626 -117.726 136.337C-55.3136 94.5889 -27.8855 39.6218 23.1331 14.6995C64.1377 -5.33266 95.6 -14.0636 133.674 -15.7741C170.773 -17.4418 214.25 -13.9147 273.578 -14.8015C354.594 -16.0133 470.093 -20.8989 632.305 -59.9432" stroke="white" stroke-width="1.36" stroke-linecap="round" stroke-linejoin="round"/>
<path d="M-349.811 184.624C-296.83 191.719 -223.562 192.701 -149.125 158.513C-136.729 152.819 -125.153 146.32 -114.254 139.031C-51.7942 97.2788 -23.8604 42.939 26.3501 17.4526C66.9415 -3.15051 98.0833 -12.8992 136.061 -15.6342C172.961 -18.2925 216.451 -15.808 275.759 -17.171C356.883 -19.035 472.348 -23.5911 634.468 -59.1331" stroke="white" stroke-width="1.36" stroke-linecap="round" stroke-linejoin="round"/>
<path d="M-345.77 189.494C-292.943 195.758 -219.91 195.743 -145.565 161.236C-133.237 155.516 -121.69 149.008 -110.786 141.723C-48.2794 99.9664 -19.8444 46.2495 29.5625 20.2057C69.7385 -0.970598 100.564 -11.7302 138.444 -15.4943C175.146 -19.141 218.652 -17.7035 277.94 -19.5404C359.172 -22.0566 474.605 -26.2833 636.628 -58.323" stroke="white" stroke-width="1.36" stroke-linecap="round" stroke-linejoin="round"/>
<path d="M-341.727 194.364C-289.053 199.795 -216.257 198.787 -142 163.962C-129.742 158.212 -118.22 151.698 -107.314 144.415C-44.7576 102.654 -15.8237 49.5532 32.7795 22.9565C72.5379 1.20029 103.05 -10.5635 140.831 -15.3566C177.334 -19.9895 220.853 -19.6014 280.121 -21.9122C361.459 -25.0827 476.861 -28.9777 638.791 -57.5151" stroke="white" stroke-width="1.36" stroke-linecap="round" stroke-linejoin="round"/>
<path d="M-337.684 199.234C-285.166 203.835 -212.602 201.831 -138.438 166.686C-126.248 160.909 -114.753 154.385 -103.842 147.105C-41.2384 105.339 -11.8079 52.8524 35.9961 25.7073C75.3347 3.36891 105.535 -9.39235 143.219 -15.219C179.523 -20.8335 223.056 -21.5015 282.306 -24.2839C363.753 -28.1089 479.12 -31.6721 640.958 -56.7072" stroke="white" stroke-width="1.36" stroke-linecap="round" stroke-linejoin="round"/>
<path d="M-333.643 204.103C-281.279 207.874 -208.95 204.877 -134.876 169.412C-122.755 163.608 -111.285 157.075 -100.372 149.797C-37.7211 108.027 -7.79619 56.1471 39.2109 28.4582C78.1273 5.53528 108.021 -8.21665 145.603 -15.0813C181.711 -21.6752 225.257 -23.3993 284.484 -26.6556C366.04 -31.1373 481.373 -34.3688 643.116 -55.8993" stroke="white" stroke-width="1.36" stroke-linecap="round" stroke-linejoin="round"/>
<path d="M-329.6 208.973C-277.389 211.914 -205.293 207.924 -131.311 172.138C-119.259 166.307 -107.818 159.765 -96.9006 152.49C-34.1996 110.715 -3.78481 59.4395 42.4254 31.2113C80.9152 7.6994 110.506 -7.03869 147.989 -14.9414C183.903 -22.5124 227.458 -25.2994 286.665 -29.0228C368.326 -34.1612 483.628 -37.0587 645.279 -55.087" stroke="white" stroke-width="1.36" stroke-linecap="round" stroke-linejoin="round"/>
<path d="M-325.557 213.843C-273.502 215.953 -201.636 210.973 -127.749 174.862C-115.764 169.006 -104.35 162.453 -93.4308 155.182C-30.6824 113.402 0.220014 62.7274 45.6402 33.9621C83.7032 9.85673 112.994 -5.85849 150.373 -14.8038C186.093 -23.3519 229.657 -27.1995 288.846 -31.3946C370.613 -37.1918 485.884 -39.7531 647.441 -54.2791" stroke="white" stroke-width="1.36" stroke-linecap="round" stroke-linejoin="round"/>
<path d="M-321.514 218.713C-269.612 219.992 -197.979 214.021 -124.184 177.588C-112.267 171.705 -100.881 165.143 -89.9568 157.874C-27.1609 116.09 4.22686 66.0108 48.8591 36.7152C86.491 12.0141 115.488 -4.676 152.763 -14.6639C188.291 -24.1846 231.863 -29.0996 291.031 -33.764C372.907 -40.2203 488.143 -42.4453 649.606 -53.469" stroke="white" stroke-width="1.36" stroke-linecap="round" stroke-linejoin="round"/>
<path d="M-317.473 223.583C-265.725 224.032 -194.324 217.072 -120.624 180.312C-108.777 174.402 -97.4175 167.83 -86.4891 160.564C-23.6436 118.775 8.22271 69.2897 52.0717 39.4638C89.2701 14.1624 117.976 -3.49352 155.145 -14.5285C190.481 -25.0196 234.059 -31.0042 293.209 -36.138C375.191 -43.2532 490.396 -45.142 651.766 -52.6633" stroke="white" stroke-width="1.36" stroke-linecap="round" stroke-linejoin="round"/>
<path d="M-313.43 228.452C-261.838 228.069 -190.664 220.125 -117.06 183.038C-105.28 177.103 -93.9479 170.522 -83.0173 163.256C-20.1244 121.463 12.2183 72.5664 55.2884 42.2169C92.0489 16.313 120.47 -2.30427 157.533 -14.3885C192.682 -25.8477 236.262 -32.9065 295.392 -38.5075C377.48 -46.2838 492.654 -47.8341 653.931 -51.8532" stroke="white" stroke-width="1.36" stroke-linecap="round" stroke-linejoin="round"/>
<path d="M-309.386 233.322C-257.948 232.108 -187.003 223.179 -113.495 185.761C-101.783 179.799 -90.4781 173.21 -79.5452 165.948C-16.6049 124.151 16.2118 75.8408 58.5054 44.9677C94.8257 18.4568 122.97 -1.11728 159.92 -14.2509C194.881 -26.6782 238.463 -34.8111 297.575 -40.8792C379.769 -49.319 494.911 -50.5285 656.094 -51.0453" stroke="white" stroke-width="1.36" stroke-linecap="round" stroke-linejoin="round"/>
<path d="M-305.346 238.192C-254.061 236.148 -183.346 226.234 -109.935 188.487C-98.2912 182.501 -87.013 175.9 -76.0756 168.64C-13.0879 126.838 20.1962 79.1106 61.7199 47.7208C97.5933 20.6006 125.466 0.0742178 162.306 -14.111C197.082 -27.5041 240.664 -36.7134 299.756 -43.2487C382.056 -52.3519 497.166 -53.223 658.257 -50.2352" stroke="white" stroke-width="1.36" stroke-linecap="round" stroke-linejoin="round"/>
<path d="M-301.302 243.062C-250.173 240.187 -179.684 229.29 -106.371 191.213C-94.7944 185.202 -83.5454 178.59 -72.6035 171.332C-9.5661 129.526 24.1807 82.3782 64.937 50.4716C100.361 22.7399 127.97 1.26574 164.692 -13.9733C199.288 -28.33 242.863 -38.618 301.939 -45.6204C384.345 -55.3871 499.424 -55.9174 660.419 -49.4273" stroke="white" stroke-width="1.36" stroke-linecap="round" stroke-linejoin="round"/>
<path d="M-297.259 247.932C-246.284 244.226 -176.02 232.347 -102.808 193.937C-91.2997 187.898 -80.0779 181.277 -69.1337 174.022C-6.04891 132.211 28.1562 85.6413 68.1516 53.2225C103.122 24.8746 130.471 2.45949 167.078 -13.8357C201.493 -29.156 245.064 -40.5249 304.12 -47.9921C386.63 -58.4245 501.679 -58.6118 662.582 -48.6194" stroke="white" stroke-width="1.36" stroke-linecap="round" stroke-linejoin="round"/>
<path d="M-293.219 252.802C-242.399 248.266 -172.361 235.407 -99.2461 196.663C-87.8053 190.6 -76.6105 183.967 -65.6641 176.717C-2.53187 134.901 32.1292 88.9066 71.3639 55.9756C105.876 27.0117 132.975 3.6555 169.46 -13.6958C203.696 -29.9774 247.259 -42.4295 306.298 -50.3616C388.912 -61.4597 503.932 -61.304 664.742 -47.8093" stroke="white" stroke-width="1.36" stroke-linecap="round" stroke-linejoin="round"/>
<path d="M-289.175 257.671C-238.509 252.305 -168.695 238.467 -95.6814 199.387C-84.3061 193.299 -73.1407 186.655 -62.1897 179.407C0.992131 137.587 36.1002 92.1652 74.5832 58.7264C108.632 29.1419 135.485 4.85151 171.85 -13.5581C205.911 -30.8011 249.464 -44.3386 308.483 -52.7333C391.201 -64.4994 506.192 -63.9984 666.907 -47.0014" stroke="white" stroke-width="1.36" stroke-linecap="round" stroke-linejoin="round"/>
<path d="M-285.132 262.541C-234.619 256.342 -165.031 241.53 -92.1193 202.113C-80.8117 196 -69.6756 189.345 -58.7202 182.099C4.5091 140.274 40.0619 95.4238 77.7976 61.4772C111.38 31.2699 137.995 6.04754 174.234 -13.4205C208.123 -31.6247 251.643 -46.3583 310.664 -55.105C393.463 -67.697 508.447 -66.6928 669.07 -46.1936" stroke="white" stroke-width="1.36" stroke-linecap="round" stroke-linejoin="round"/>
<path d="M-281.089 267.411C-230.732 260.382 -161.365 244.592 -88.5547 204.837C-77.3148 198.699 -66.2058 192.033 -55.2481 184.789C8.02859 142.96 44.0193 98.6779 81.0146 64.2281C114.125 33.3957 140.51 7.24356 176.623 -13.2828C210.34 -32.4461 253.846 -48.2539 312.847 -57.4767C395.75 -70.7187 510.704 -69.3872 671.235 -45.3857" stroke="white" stroke-width="1.36" stroke-linecap="round" stroke-linejoin="round"/>
<path d="M-277.048 272.281C-226.845 264.421 -157.699 247.656 -84.9947 207.563C-73.8203 201.4 -62.7407 194.725 -51.7807 187.483C11.5456 145.65 47.9698 101.936 84.2269 66.9812C116.858 35.5237 143.022 8.44183 179.004 -13.1429C212.552 -33.2675 256.04 -50.1449 315.025 -59.8462C398.034 -73.738 512.957 -72.0817 673.393 -44.5756" stroke="white" stroke-width="1.36" stroke-linecap="round" stroke-linejoin="round"/>
<path d="M-273.005 277.151C-222.955 268.46 -153.962 250.845 -81.4301 210.289C-70.3121 204.121 -59.2708 197.415 -48.3063 190.175C15.0674 148.337 51.9204 105.193 87.4461 69.7343C119.595 37.6472 145.544 9.64011 181.393 -13.003C214.776 -34.0867 258.243 -52.0382 317.208 -62.2134C400.324 -76.7551 515.215 -74.7716 675.558 -43.7631" stroke="white" stroke-width="1.36" stroke-linecap="round" stroke-linejoin="round"/>
<path d="M-268.962 282.02C-219.068 272.5 -150.308 253.885 -77.8657 213.013C-66.8177 206.816 -55.8035 200.102 -44.8345 192.865C18.5866 151.023 55.8618 108.445 90.6629 72.4829C122.322 39.7684 148.063 10.8361 183.781 -12.8676C216.999 -34.9126 260.447 -53.9361 319.393 -64.5874C402.613 -79.779 517.475 -77.4682 677.723 -42.9575" stroke="white" stroke-width="1.36" stroke-linecap="round" stroke-linejoin="round"/>
<path d="M-264.921 286.89C-215.18 276.539 -146.655 256.924 -74.3055 215.739C-63.3252 209.515 -52.3382 202.792 -41.3669 195.557C22.1039 153.71 59.7945 111.699 93.8754 75.236C125.042 41.8897 150.583 12.0344 186.163 -12.7277C219.219 -35.7341 262.641 -55.8271 321.57 -66.9569C404.895 -82.7984 519.725 -80.1604 679.881 -42.1474" stroke="white" stroke-width="1.36" stroke-linecap="round" stroke-linejoin="round"/>
<path d="M-260.878 291.76C-211.291 280.578 -143.003 259.962 -70.7412 218.462C-59.8308 212.209 -48.8686 205.48 -37.8951 198.247C25.6231 156.396 63.7268 114.953 97.0921 77.9845C127.76 44.0064 153.136 13.2643 188.551 -12.5923C221.472 -36.5261 264.844 -57.725 323.753 -69.3308C407.184 -85.8201 521.983 -82.8571 682.046 -41.3418" stroke="white" stroke-width="1.36" stroke-linecap="round" stroke-linejoin="round"/>
<path d="M-256.835 296.632C-199.976 282.815 -118.482 256.293 -34.423 200.944C87.8569 120.427 117.418 43.5325 190.937 -12.4478C270.113 -72.7361 411.464 -117.282 684.208 -40.5271" stroke="white" stroke-width="1.36" stroke-linecap="round" stroke-linejoin="round"/>
<path d="M-258.964 289.368C-200.505 280.937 -118.421 256.015 -34.4751 201.725C87.9629 122.74 118.235 44.487 194.63 -12.5449C274.732 -72.3434 415.221 -116.492 684.059 -41.2651" stroke="white" stroke-width="1.36" stroke-linecap="round" stroke-linejoin="round"/>
<path d="M-261.093 282.104C-201.033 279.06 -118.36 255.74 -34.5246 202.506C88.0714 125.056 119.039 45.4326 198.326 -12.6442C279.326 -71.9756 418.979 -115.702 683.913 -42.0052" stroke="white" stroke-width="1.36" stroke-linecap="round" stroke-linejoin="round"/>
<path d="M-263.221 274.842C-201.559 277.184 -118.301 255.467 -34.5766 203.291C88.1797 127.373 119.827 46.3736 202.017 -12.7367C283.897 -71.6236 422.733 -114.906 683.761 -42.7387" stroke="white" stroke-width="1.36" stroke-linecap="round" stroke-linejoin="round"/>
<path d="M-265.35 267.578C-202.087 275.309 -118.355 255.002 -34.6284 204.072C88.1166 129.409 120.601 47.3011 205.71 -12.836C288.451 -71.2986 426.49 -114.118 683.613 -43.4788" stroke="white" stroke-width="1.36" stroke-linecap="round" stroke-linejoin="round"/>
<path d="M-267.479 260.316C-202.615 273.434 -118.322 254.684 -34.6805 204.855C88.1887 131.656 121.364 48.2195 209.403 -12.9308C292.986 -70.9872 430.246 -113.324 683.463 -44.2145" stroke="white" stroke-width="1.36" stroke-linecap="round" stroke-linejoin="round"/>
<path d="M-269.608 253.052C-203.143 271.556 -118.283 254.363 -34.7323 205.636C88.2633 133.906 122.116 49.1267 213.096 -13.03C297.508 -70.7006 434.003 -112.534 683.315 -44.9547" stroke="white" stroke-width="1.36" stroke-linecap="round" stroke-linejoin="round"/>
<path d="M-271.737 245.788C-203.67 269.679 -118.245 254.045 -34.7821 206.419C88.3399 136.158 122.859 50.0271 216.792 -13.1248C302.016 -70.423 437.761 -111.742 683.168 -45.6881" stroke="white" stroke-width="1.36" stroke-linecap="round" stroke-linejoin="round"/>
<path d="M-273.865 238.526C-204.198 267.806 -118.202 253.731 -34.8338 207.202C88.4191 138.413 123.59 50.9162 220.485 -13.2219C306.51 -70.1635 441.518 -110.95 683.019 -46.426" stroke="white" stroke-width="1.36" stroke-linecap="round" stroke-linejoin="round"/>
<path d="M-275.994 231.262C-204.726 265.928 -118.159 253.415 -34.8859 207.983C88.5002 140.665 124.31 51.7918 224.176 -13.3189C310.989 -69.9198 445.272 -110.158 682.867 -47.1639" stroke="white" stroke-width="1.36" stroke-linecap="round" stroke-linejoin="round"/>
<path d="M-278.123 223.998C-205.252 264.051 -118.116 253.102 -34.9377 208.766C88.5839 142.924 125.022 52.6583 227.869 -13.4159C315.461 -69.6896 449.028 -109.368 682.721 -47.9018" stroke="white" stroke-width="1.36" stroke-linecap="round" stroke-linejoin="round"/>
<path d="M-280.252 216.736C-205.78 262.176 -118.069 252.792 -34.9875 209.549C88.6741 145.183 125.726 53.5158 231.565 -13.5107C319.924 -69.4685 452.787 -108.574 682.574 -48.6375" stroke="white" stroke-width="1.36" stroke-linecap="round" stroke-linejoin="round"/>
<path d="M-282.38 209.472C-206.308 260.298 -118.021 252.481 -35.0393 210.329C88.7622 147.444 126.419 54.3598 235.258 -13.61C324.378 -69.2654 456.543 -107.784 682.425 -49.3777" stroke="white" stroke-width="1.36" stroke-linecap="round" stroke-linejoin="round"/>
<path d="M-284.509 202.21C-206.837 258.425 -117.972 252.174 -35.0913 211.115C88.8524 149.709 127.105 55.1948 238.951 -13.7025C328.823 -69.0646 460.3 -106.987 682.276 -50.1111" stroke="white" stroke-width="1.36" stroke-linecap="round" stroke-linejoin="round"/>
<path d="M-286.638 194.946C-207.363 256.548 -117.92 251.867 -35.1431 211.895C88.9473 151.973 127.782 56.0162 242.644 -13.8018C333.261 -68.884 464.056 -106.2 682.127 -50.8513" stroke="white" stroke-width="1.36" stroke-linecap="round" stroke-linejoin="round"/>
<path d="M-288.767 187.682C-207.891 254.67 -117.866 251.563 -35.1929 212.676C89.0466 154.241 128.455 56.8263 246.338 -13.8989C337.69 -68.708 467.813 -105.408 681.978 -51.5892" stroke="white" stroke-width="1.36" stroke-linecap="round" stroke-linejoin="round"/>
<path d="M-290.896 180.42C-208.419 252.795 -117.811 251.26 -35.2447 213.459C89.1437 156.511 129.119 57.6297 250.031 -13.9959C342.117 -68.5433 471.569 -104.616 681.829 -52.3248" stroke="white" stroke-width="1.36" stroke-linecap="round" stroke-linejoin="round"/>
<path d="M-293.024 173.156C-208.945 250.917 -117.755 250.96 -35.2967 214.242C89.2452 158.786 129.773 58.4195 253.724 -14.0907C346.535 -68.3853 475.326 -103.823 681.68 -53.0605" stroke="white" stroke-width="1.36" stroke-linecap="round" stroke-linejoin="round"/>
<path d="M-295.153 165.894C-209.473 249.044 -117.698 250.662 -35.3485 215.025C89.3469 161.063 130.424 59.1981 257.417 -14.1877C350.951 -68.2386 479.082 -103.031 681.531 -53.7984" stroke="white" stroke-width="1.36" stroke-linecap="round" stroke-linejoin="round"/>
<path d="M-297.282 158.63C-210.002 247.167 -117.638 250.364 -35.3983 215.806C89.4552 163.342 131.069 59.9653 261.113 -14.2847C355.362 -68.0987 482.841 -102.239 681.384 -54.5363" stroke="white" stroke-width="1.36" stroke-linecap="round" stroke-linejoin="round"/>
<path d="M-299.411 151.366C-210.53 245.289 -117.577 250.069 -35.4501 216.589C89.5637 165.625 131.706 60.7235 264.806 -14.3818C359.768 -67.9678 486.597 -101.45 681.235 -55.2742" stroke="white" stroke-width="1.36" stroke-linecap="round" stroke-linejoin="round"/>
<path d="M-301.54 144.104C-211.056 243.414 -117.516 249.78 -35.5022 217.372C89.6719 167.911 132.338 61.4705 268.497 -14.4766C364.168 -67.8392 490.351 -100.655 681.084 -56.0099" stroke="white" stroke-width="1.36" stroke-linecap="round" stroke-linejoin="round"/>
<path d="M-303.668 136.84C-211.584 241.539 -117.452 249.489 -35.5539 218.153C89.7849 170.2 132.963 62.2039 272.19 -14.5759C368.566 -67.7241 494.108 -99.8654 680.935 -56.7501" stroke="white" stroke-width="1.36" stroke-linecap="round" stroke-linejoin="round"/>
<path d="M-305.797 129.578C-212.112 239.663 -117.387 249.202 -35.6037 218.938C89.8999 172.495 133.586 62.9328 275.885 -14.6684C372.963 -67.609 497.866 -99.071 680.788 -57.4835" stroke="white" stroke-width="1.36" stroke-linecap="round" stroke-linejoin="round"/>
<path d="M-307.926 122.314C-212.638 237.786 -117.321 248.916 -35.6555 219.719C90.0151 174.79 134.203 63.6436 279.579 -14.7677C377.356 -67.5052 501.623 -98.2812 680.639 -58.2237" stroke="white" stroke-width="1.36" stroke-linecap="round" stroke-linejoin="round"/>
<path d="M-310.055 115.05C-213.167 235.908 -117.254 248.634 -35.7076 220.5C90.1301 177.087 134.812 64.3477 283.272 -14.8669C381.745 -67.4082 505.379 -97.4914 680.49 -58.9638" stroke="white" stroke-width="1.36" stroke-linecap="round" stroke-linejoin="round"/>
<path d="M-312.183 107.788C-213.695 234.033 -117.186 248.354 -35.7594 221.283C90.2499 179.393 135.419 65.0405 286.965 -14.9617C386.131 -67.3134 509.135 -96.6993 680.341 -59.6973" stroke="white" stroke-width="1.36" stroke-linecap="round" stroke-linejoin="round"/>
<path d="M-314.312 100.524C-214.223 232.158 -117.116 248.076 -35.8091 222.066C90.3717 181.702 136.022 65.7242 290.658 -15.0588C390.517 -67.2254 512.894 -95.9072 680.192 -60.4352" stroke="white" stroke-width="1.36" stroke-linecap="round" stroke-linejoin="round"/>
<path d="M-316.441 93.262C-214.749 230.283 -117.046 247.803 -35.8609 222.849C90.4937 184.012 136.618 66.399 294.352 -15.1536C394.899 -67.1396 516.651 -95.1129 680.044 -61.1708" stroke="white" stroke-width="1.36" stroke-linecap="round" stroke-linejoin="round"/>
<path d="M-318.57 85.9978C-215.277 228.405 -116.976 247.53 -35.913 223.63C90.6155 186.328 137.212 67.0602 298.045 -15.2528C399.281 -67.0629 520.407 -94.3231 679.895 -61.911" stroke="white" stroke-width="1.36" stroke-linecap="round" stroke-linejoin="round"/>
<path d="M-320.699 78.7337C-215.806 226.528 -116.904 247.259 -35.965 224.413C90.7396 188.65 137.799 67.7146 301.738 -15.3476C403.658 -66.9884 524.163 -93.531 679.745 -62.6467" stroke="white" stroke-width="1.36" stroke-linecap="round" stroke-linejoin="round"/>
<path d="M-322.827 71.4719C-216.332 224.652 -116.832 246.993 -36.0146 225.196C90.8661 190.974 138.386 68.3577 305.433 -15.4447C408.04 -66.9185 527.922 -92.7389 679.599 -63.3846" stroke="white" stroke-width="1.36" stroke-linecap="round" stroke-linejoin="round"/>
<path d="M-324.956 64.2078C-216.86 222.777 -116.76 246.729 -36.0666 225.977C90.9924 193.301 138.966 68.9896 309.126 -15.5417C412.414 -66.853 531.678 -91.9468 679.45 -64.1225" stroke="white" stroke-width="1.36" stroke-linecap="round" stroke-linejoin="round"/>
<path d="M-327.085 56.9459C-217.388 220.902 -116.687 246.469 -36.1184 226.762C91.119 195.639 139.544 69.6169 312.82 -15.6365C416.79 -66.7899 535.435 -91.1547 679.301 -64.8582" stroke="white" stroke-width="1.36" stroke-linecap="round" stroke-linejoin="round"/>
<path d="M-329.214 49.6818C-217.916 219.024 -116.613 246.21 -36.1704 227.543C91.2452 197.974 140.117 70.2307 316.511 -15.7335C421.162 -66.7334 539.189 -90.3627 679.149 -65.5961" stroke="white" stroke-width="1.36" stroke-linecap="round" stroke-linejoin="round"/>
<path d="M-331.343 42.4177C-218.442 217.147 -116.54 245.955 -36.22 228.324C91.3741 200.317 140.688 70.8333 320.206 -15.8328C425.537 -66.6838 542.948 -89.5728 679.003 -66.3363" stroke="white" stroke-width="1.36" stroke-linecap="round" stroke-linejoin="round"/>
<path d="M-333.471 35.1559C-218.97 215.274 -116.466 245.702 -36.2718 229.107C91.5028 202.666 141.255 71.4313 323.9 -15.9276C429.91 -66.6319 546.704 -88.7808 678.854 -67.0697" stroke="white" stroke-width="1.36" stroke-linecap="round" stroke-linejoin="round"/>
<path d="M-335.6 27.8918C-219.499 213.396 -116.391 245.452 -36.3238 229.89C91.6291 205.02 141.819 72.018 327.593 -16.0246C434.28 -66.5868 550.461 -87.9887 678.705 -67.8076" stroke="white" stroke-width="1.36" stroke-linecap="round" stroke-linejoin="round"/>
<path d="M-337.729 20.6299C-220.025 211.521 -116.317 245.208 -36.3759 230.673C91.7577 207.378 142.379 72.5957 331.286 -16.1194C438.651 -66.5416 554.217 -87.1943 678.556 -68.5433" stroke="white" stroke-width="1.36" stroke-linecap="round" stroke-linejoin="round"/>
<path d="M-339.858 13.3658C-220.553 209.643 -116.245 244.962 -36.4276 231.454C91.8843 209.738 142.937 73.1621 334.979 -16.2187C443.021 -66.5033 557.973 -86.4068 678.407 -69.2834" stroke="white" stroke-width="1.36" stroke-linecap="round" stroke-linejoin="round"/>
<path d="M-341.987 6.1017C-221.081 207.766 -116.17 244.721 -36.4774 232.237C92.0128 212.105 143.494 73.7218 338.672 -16.3135C447.392 -66.4649 561.73 -85.6124 678.258 -70.0191" stroke="white" stroke-width="1.36" stroke-linecap="round" stroke-linejoin="round"/>
<path d="M-344.115 -1.16015C-221.61 205.893 -116.098 244.486 -36.5292 233.02C92.1394 214.479 144.045 74.2746 342.365 -16.4105C451.76 -66.4333 565.486 -84.8204 678.109 -70.757" stroke="white" stroke-width="1.36" stroke-linecap="round" stroke-linejoin="round"/>
<path d="M-346.244 -8.42426C-222.136 204.015 -116.026 244.249 -36.5811 233.801C92.2658 216.856 144.594 74.8162 346.059 -16.5075C456.128 -66.4017 569.243 -84.0305 677.96 -71.4949" stroke="white" stroke-width="1.36" stroke-linecap="round" stroke-linejoin="round"/>
<path d="M-348.373 -15.6861C-222.664 202.14 -115.956 244.019 -36.6331 234.586C92.3899 219.241 145.14 75.351 349.752 -16.6023C460.499 -66.3724 572.999 -83.2362 677.811 -72.2306" stroke="white" stroke-width="1.36" stroke-linecap="round" stroke-linejoin="round"/>
<path d="M-350.502 -22.9502C-223.192 200.263 -115.884 243.789 -36.6827 235.367C92.5163 221.628 145.686 75.8768 353.447 -16.6993C464.869 -66.3476 576.758 -82.4441 677.664 -72.9685" stroke="white" stroke-width="1.36" stroke-linecap="round" stroke-linejoin="round"/>
<path d="M-352.63 -30.2143C-223.718 198.387 -115.814 243.561 -36.7346 236.148C92.6383 224.018 146.228 76.3914 357.141 -16.7986C469.235 -66.3272 580.514 -81.6566 677.515 -73.7087" stroke="white" stroke-width="1.36" stroke-linecap="round" stroke-linejoin="round"/>
<path d="M-354.759 -37.4762C-224.246 196.512 -115.746 243.339 -36.7866 236.933C92.7579 226.419 146.768 76.9036 360.832 -16.8912C473.601 -66.3024 584.268 -80.86 677.364 -74.4399" stroke="white" stroke-width="1.36" stroke-linecap="round" stroke-linejoin="round"/>
<path d="M-356.888 -44.7403C-224.774 194.635 -115.678 243.118 -36.8385 237.714C92.8776 228.823 147.305 77.4023 364.525 -16.9905C477.969 -66.2866 588.025 -80.0702 677.215 -75.18" stroke="white" stroke-width="1.36" stroke-linecap="round" stroke-linejoin="round"/>
<path d="M-359.017 -52.0021C-225.303 192.759 -115.61 242.902 -36.8882 238.497C92.9972 231.23 147.842 77.8965 368.22 -17.0852C482.339 -66.2708 591.783 -79.2758 677.068 -75.9157" stroke="white" stroke-width="1.36" stroke-linecap="round" stroke-linejoin="round"/>
<path d="M-361.146 -59.2662C-225.829 190.882 -115.54 242.811 -36.9401 239.277C93.1191 233.853 148.375 78.3795 371.913 -17.1845C486.708 -66.2595 595.54 -78.4882 676.919 -76.6559" stroke="white" stroke-width="1.36" stroke-linecap="round" stroke-linejoin="round"/>
<path d="M-363.274 -66.5303C-226.357 189.006 -115.479 242.536 -36.992 240.061C93.2275 236.168 148.806 78.6254 375.607 -17.2793C491.024 -66.3634 599.296 -77.6939 676.77 -77.3915" stroke="white" stroke-width="1.36" stroke-linecap="round" stroke-linejoin="round"/>
<path d="M-365.403 -73.7922C-226.885 187.131 -115.421 242.263 -37.0439 240.844C93.3336 238.483 149.434 79.3273 379.3 -17.3763C495.442 -66.237 603.053 -76.9018 676.621 -78.1294" stroke="white" stroke-width="1.36" stroke-linecap="round" stroke-linejoin="round"/>
<path d="M-364.448 -67.7061C-227.626 182.399 -116.597 234.753 -38.2856 232.918C91.9835 229.865 148.987 76.4658 379.216 -17.9157C495.543 -65.6029 603.116 -76.5069 676.623 -78.1272" stroke="white" stroke-width="1.36" stroke-linecap="round" stroke-linejoin="round"/>
<path d="M-363.493 -61.6199C-228.368 177.667 -117.775 227.243 -39.5294 224.991C90.6314 221.247 148.538 73.6021 379.131 -18.4573C495.64 -64.971 603.177 -76.112 676.623 -78.1272" stroke="white" stroke-width="1.36" stroke-linecap="round" stroke-linejoin="round"/>
<path d="M-362.541 -55.5338C-229.111 172.937 -118.956 219.731 -40.7732 217.065C89.2792 212.629 148.086 70.7407 379.045 -18.9966C495.74 -64.3369 603.238 -75.7148 676.621 -78.1249" stroke="white" stroke-width="1.36" stroke-linecap="round" stroke-linejoin="round"/>
<path d="M-361.586 -49.4476C-229.854 168.205 -120.132 212.22 -42.0172 209.138C87.9268 204.011 147.637 67.8748 378.959 -19.5382C495.837 -63.705 603.299 -75.3199 676.621 -78.1249" stroke="white" stroke-width="1.36" stroke-linecap="round" stroke-linejoin="round"/>
<path d="M-360.631 -43.3615C-230.597 163.473 -121.311 204.71 -43.2588 201.213C86.5769 195.393 147.19 65.0134 378.875 -20.0775C495.938 -63.0709 603.362 -74.9228 676.623 -78.1204" stroke="white" stroke-width="1.36" stroke-linecap="round" stroke-linejoin="round"/>
<path d="M-359.676 -37.2753C-231.337 158.74 -122.489 197.2 -44.5026 193.287C85.2248 186.777 146.741 62.152 378.79 -20.6169C496.036 -62.4368 603.423 -74.5256 676.621 -78.1182" stroke="white" stroke-width="1.36" stroke-linecap="round" stroke-linejoin="round"/>
<path d="M-358.721 -31.1892C-232.08 154.011 -123.665 189.69 -45.7443 185.36C83.8747 178.157 146.293 59.2883 378.708 -21.1585C496.139 -61.805 603.491 -74.1307 676.626 -78.1182" stroke="white" stroke-width="1.36" stroke-linecap="round" stroke-linejoin="round"/>
<path d="M-357.766 -25.103C-232.82 149.278 -124.843 182.18 -46.988 177.434C82.5226 169.541 145.842 56.4246 378.623 -21.6978C496.239 -61.1708 603.552 -73.7358 676.626 -78.1159" stroke="white" stroke-width="1.36" stroke-linecap="round" stroke-linejoin="round"/>
<path d="M-356.811 -19.0169C-233.563 144.546 -126.02 174.67 -48.2297 169.507C81.1725 160.92 145.395 53.561 378.539 -22.2394C496.338 -60.539 603.615 -73.3409 676.626 -78.1159" stroke="white" stroke-width="1.36" stroke-linecap="round" stroke-linejoin="round"/>
<path d="M-355.859 -12.9308C-234.306 139.814 -127.2 167.16 -49.4759 161.582C79.818 152.305 144.944 50.6996 378.451 -22.7787C496.435 -59.9049 603.673 -72.9437 676.623 -78.1137" stroke="white" stroke-width="1.36" stroke-linecap="round" stroke-linejoin="round"/>
<path d="M-354.904 -6.84462C-235.048 135.084 -128.379 159.648 -50.7174 153.656C78.4681 143.686 144.497 47.8382 378.367 -23.3181C496.534 -59.2708 603.737 -72.5465 676.626 -78.1114" stroke="white" stroke-width="1.36" stroke-linecap="round" stroke-linejoin="round"/>
<path d="M-353.949 -0.758461C-235.791 130.352 -129.555 152.138 -51.9613 145.729C77.1137 135.068 144.045 44.9745 378.282 -23.8596C496.634 -58.6389 603.798 -72.1516 676.623 -78.1114" stroke="white" stroke-width="1.36" stroke-linecap="round" stroke-linejoin="round"/>
<path d="M-352.994 5.32767C-236.531 125.62 -130.733 144.627 -53.2029 137.803C75.7637 126.45 143.598 42.1108 378.198 -24.399C496.733 -58.0048 603.861 -71.7545 676.626 -78.1091" stroke="white" stroke-width="1.36" stroke-linecap="round" stroke-linejoin="round"/>
<path d="M-352.039 11.4161C-237.274 120.892 -131.912 137.12 -54.4467 129.878C74.4115 117.834 143.149 39.2494 378.115 -24.9383C496.835 -57.3707 603.924 -71.3573 676.626 -78.1069" stroke="white" stroke-width="1.36" stroke-linecap="round" stroke-linejoin="round"/>
<path d="M-351.084 17.5022C-238.015 116.16 -133.088 129.61 -55.6884 121.953C73.0615 109.216 142.702 36.388 378.031 -25.4799C496.934 -56.7388 603.987 -70.9646 676.628 -78.1069" stroke="white" stroke-width="1.36" stroke-linecap="round" stroke-linejoin="round"/>
<path d="M-350.131 23.5884C-238.759 111.428 -134.268 122.1 -56.9344 114.028C71.7071 100.598 142.251 33.5266 377.943 -26.0192C497.031 -56.1047 604.046 -70.5675 676.626 -78.1024" stroke="white" stroke-width="1.36" stroke-linecap="round" stroke-linejoin="round"/>
<path d="M-349.177 29.6745C-239.5 106.696 -135.445 114.589 -58.1761 106.1C70.357 91.9802 141.801 30.6629 377.859 -26.5608C497.13 -55.4728 604.109 -70.1726 676.626 -78.1024" stroke="white" stroke-width="1.36" stroke-linecap="round" stroke-linejoin="round"/>
<path d="M-348.222 35.7607C-240.243 101.966 -136.623 107.079 -59.4199 98.1747C69.0048 83.3621 141.352 27.7992 377.774 -27.1002C497.23 -54.8387 604.17 -69.7754 676.626 -78.1001" stroke="white" stroke-width="1.36" stroke-linecap="round" stroke-linejoin="round"/>
<path d="M-347.267 41.8468C-240.983 97.2336 -137.801 99.5692 -60.6616 90.2471C67.6548 74.744 140.905 24.9356 377.69 -27.6418C497.329 -54.2069 604.233 -69.3805 676.628 -78.1001" stroke="white" stroke-width="1.36" stroke-linecap="round" stroke-linejoin="round"/>
<path d="M-346.312 47.9329C-241.726 92.5015 -138.977 92.0569 -61.9054 82.3218C66.3027 66.1259 140.456 22.0742 377.604 -28.1811C497.428 -53.5727 604.294 -68.9833 676.626 -78.0979" stroke="white" stroke-width="1.36" stroke-linecap="round" stroke-linejoin="round"/>
<path d="M-345.357 54.0191C-242.469 87.7693 -140.156 84.5468 -63.147 74.3965C64.9527 57.5101 140.009 19.2127 377.521 -28.7204C497.528 -52.9386 604.357 -68.5884 676.628 -78.0956" stroke="white" stroke-width="1.36" stroke-linecap="round" stroke-linejoin="round"/>
<path d="M-344.402 60.1052C-243.209 83.0394 -141.334 77.0368 -64.3908 66.4689C63.6005 48.8898 139.557 16.3468 377.437 -29.262C497.629 -52.3068 604.421 -68.1935 676.63 -78.0956" stroke="white" stroke-width="1.36" stroke-linecap="round" stroke-linejoin="round"/>
<path d="M-343.449 66.1914C-243.954 78.3072 -142.513 69.5267 -65.6346 58.5436C62.2483 40.2739 139.108 13.4854 377.352 -29.8014C497.726 -51.6727 604.482 -67.7963 676.628 -78.0933" stroke="white" stroke-width="1.36" stroke-linecap="round" stroke-linejoin="round"/>
<path d="M-342.494 72.2775C-244.694 73.5751 -143.691 62.0166 -66.8785 50.6183C60.8961 31.6558 138.659 10.624 377.266 -30.3407C497.826 -51.0385 604.543 -67.3992 676.628 -78.0911" stroke="white" stroke-width="1.36" stroke-linecap="round" stroke-linejoin="round"/>
<path d="M-341.54 78.3637C-245.437 68.8429 -144.867 54.5065 -68.1202 42.6908C59.546 23.0377 138.212 7.76033 377.182 -30.8823C497.925 -50.4067 604.606 -67.0042 676.628 -78.0911" stroke="white" stroke-width="1.36" stroke-linecap="round" stroke-linejoin="round"/>
<path d="M-340.584 84.4498C-246.177 64.113 -146.045 46.9964 -69.364 34.7655C58.1939 14.4197 137.761 4.89891 377.097 -31.4216C498.024 -49.7726 604.667 -66.6071 676.628 -78.0866" stroke="white" stroke-width="1.36" stroke-linecap="round" stroke-linejoin="round"/>
<path d="M-339.63 90.5359C-246.92 59.3808 -147.224 39.4864 -70.6056 26.8379C56.8439 5.80156 137.313 2.03298 377.013 -31.9632C498.126 -49.1407 604.73 -66.2122 676.63 -78.0866" stroke="white" stroke-width="1.36" stroke-linecap="round" stroke-linejoin="round"/>
<path d="M-338.675 96.6221C-247.663 54.6487 -148.4 31.974 -71.8495 18.9126C55.4917 -2.81653 136.864 -0.828439 376.927 -32.5026C498.223 -48.5066 604.791 -65.8173 676.628 -78.0843" stroke="white" stroke-width="1.36" stroke-linecap="round" stroke-linejoin="round"/>
<path d="M-337.722 102.708C-248.406 49.9188 -149.581 24.4639 -73.0957 10.9873C54.1349 -11.4324 136.413 -3.68984 376.841 -33.0419C498.322 -47.8725 604.852 -65.4201 676.628 -78.0821" stroke="white" stroke-width="1.36" stroke-linecap="round" stroke-linejoin="round"/>
<path d="M-336.767 108.794C-249.148 45.1866 -150.759 16.9539 -74.3373 3.05975C52.7849 -20.0527 135.966 -6.55351 376.758 -33.5835C498.422 -47.2406 604.915 -65.0252 676.63 -78.0821" stroke="white" stroke-width="1.36" stroke-linecap="round" stroke-linejoin="round"/>
<path d="M-335.812 114.881C-249.889 40.4544 -151.935 9.44378 -75.581 -4.86554C51.4328 -28.6708 135.514 -9.41492 376.672 -34.1228C498.521 -46.6065 604.978 -64.628 676.628 -78.0798" stroke="white" stroke-width="1.36" stroke-linecap="round" stroke-linejoin="round"/>
<path d="M-334.857 120.969C-250.632 35.7245 -153.114 1.93596 -76.8227 -12.7908C50.0828 -37.2866 135.067 -12.2786 376.589 -34.6622C498.62 -45.9724 605.042 -64.2308 676.63 -78.0775" stroke="white" stroke-width="1.36" stroke-linecap="round" stroke-linejoin="round"/>
<path d="M-333.903 127.055C-251.372 30.9946 -154.29 -5.57413 -78.0666 -20.7161C48.7305 -45.9047 134.618 -15.14 376.503 -35.2015C498.719 -45.3383 605.102 -63.8337 676.63 -78.0753" stroke="white" stroke-width="1.36" stroke-linecap="round" stroke-linejoin="round"/>
<path d="M-332.948 133.141C-252.115 26.2625 -155.468 -13.0842 -79.3081 -28.6414C47.3807 -54.5205 134.171 -18.0014 376.419 -35.7408C498.819 -44.7042 605.166 -63.4365 676.63 -78.073" stroke="white" stroke-width="1.36" stroke-linecap="round" stroke-linejoin="round"/>
<path d="M-331.993 139.227C-252.857 21.5303 -156.647 -20.5943 -80.552 -36.569C46.0284 -63.1409 133.72 -20.8651 376.334 -36.2824C498.918 -44.0723 605.227 -63.0438 676.63 -78.073" stroke="white" stroke-width="1.36" stroke-linecap="round" stroke-linejoin="round"/>
<path d="M-331.04 145.313C-253.6 16.7981 -157.825 -28.1066 -81.7959 -44.4943C44.6761 -71.7567 133.27 -23.7287 376.25 -36.8217C499.018 -43.4382 605.29 -62.6467 676.632 -78.0708" stroke="white" stroke-width="1.36" stroke-linecap="round" stroke-linejoin="round"/>
<path d="M-330.085 151.4C-254.343 12.0683 -159.003 -35.6167 -83.0398 -52.4219C43.3239 -80.3771 132.821 -26.5924 376.164 -37.3656C499.117 -42.8086 605.351 -62.254 676.63 -78.0708" stroke="white" stroke-width="1.36" stroke-linecap="round" stroke-linejoin="round"/>
<path d="M-329.13 157.486C-255.083 7.3361 -160.182 -43.1268 -84.2812 -60.3472C41.9741 -88.9929 132.374 -29.4538 376.081 -37.9049C499.216 -42.1745 605.414 -61.8569 676.633 -78.0685" stroke="white" stroke-width="1.36" stroke-linecap="round" stroke-linejoin="round"/>
<path d="M-328.175 163.572C-255.826 2.60393 -161.358 -50.6369 -85.5252 -68.2725C40.6218 -97.611 131.925 -32.3152 375.995 -38.4443C499.316 -41.5404 605.475 -61.4597 676.63 -78.0663" stroke="white" stroke-width="1.36" stroke-linecap="round" stroke-linejoin="round"/>
<path d="M-327.22 169.658C-256.569 -2.12825 -162.536 -58.147 -86.7669 -76.2C39.2718 -106.229 131.476 -35.1789 375.911 -38.9859C499.415 -40.9085 605.538 -61.0648 676.632 -78.0663" stroke="white" stroke-width="1.36" stroke-linecap="round" stroke-linejoin="round"/>
<path d="M-326.266 175.744C-257.309 -6.85812 -163.715 -65.657 -88.0108 -84.1253C37.9195 -114.847 131.026 -38.0426 375.825 -39.5252C499.514 -40.2744 605.599 -60.6699 676.632 -78.064" stroke="white" stroke-width="1.36" stroke-linecap="round" stroke-linejoin="round"/>
<path d="M-325.313 181.83C-258.052 -11.5903 -164.893 -73.1671 -89.2547 -92.0529C36.5672 -123.465 130.577 -40.9063 375.74 -40.0668C499.611 -39.6425 605.66 -60.275 676.63 -78.064" stroke="white" stroke-width="1.36" stroke-linecap="round" stroke-linejoin="round"/>
<path d="M-324.358 187.916C-258.794 -16.3225 -166.069 -80.6772 -90.4961 -99.9782C35.2174 -132.083 130.13 -43.7677 375.656 -40.6061C499.713 -39.0084 605.723 -59.8778 676.632 -78.0618" stroke="white" stroke-width="1.36" stroke-linecap="round" stroke-linejoin="round"/>
<path d="M-323.403 194.003C-259.535 -21.0524 -167.248 -88.1873 -91.7401 -107.903C33.8651 -140.699 129.679 -46.6291 375.573 -41.1455C499.812 -38.3743 605.786 -59.4806 676.635 -78.0595" stroke="white" stroke-width="1.36" stroke-linecap="round" stroke-linejoin="round"/>
<path d="M-322.448 200.089C-260.278 -25.7846 -168.426 -95.6974 -92.984 -115.831C32.5129 -149.32 129.229 -49.4928 375.487 -41.6871C499.911 -37.7425 605.847 -59.0857 676.632 -78.0595" stroke="white" stroke-width="1.36" stroke-linecap="round" stroke-linejoin="round"/>
<path d="M-321.493 206.175C-261.02 -30.5167 -169.604 -103.207 -94.2254 -123.756C31.1608 -157.938 128.783 -52.3564 375.403 -42.2264C500.013 -37.1083 605.911 -58.6885 676.635 -78.0572" stroke="white" stroke-width="1.36" stroke-linecap="round" stroke-linejoin="round"/>
<path d="M-320.538 212.261C-261.763 -35.2466 -170.781 -110.72 -95.4694 -131.682C29.8085 -166.553 128.333 -55.2178 375.318 -42.7657C500.11 -36.4742 605.972 -58.2914 676.635 -78.055" stroke="white" stroke-width="1.36" stroke-linecap="round" stroke-linejoin="round"/>
<path d="M-319.583 218.347C-262.504 -39.9788 -171.959 -118.23 -96.7133 -139.609C28.4562 -175.174 127.884 -58.0815 375.232 -43.3073C500.209 -35.8424 606.033 -57.8987 676.632 -78.0527" stroke="white" stroke-width="1.36" stroke-linecap="round" stroke-linejoin="round"/>
<path d="M-318.631 224.433C-263.246 -44.711 -173.137 -125.74 -97.9549 -147.535C27.1063 -183.79 127.435 -60.9429 375.148 -43.8467C500.309 -35.2083 606.096 -57.5016 676.635 -78.0505" stroke="white" stroke-width="1.36" stroke-linecap="round" stroke-linejoin="round"/>
<path d="M-317.676 230.522C-263.989 -49.4408 -174.316 -133.25 -99.1986 -155.46C25.7542 -192.408 126.986 -63.8066 375.063 -44.386C500.408 -34.5742 606.157 -57.1044 676.635 -78.0482" stroke="white" stroke-width="1.36" stroke-linecap="round" stroke-linejoin="round"/>
<path d="M-316.721 236.608C-264.729 -54.173 -175.494 -140.76 -100.443 -163.387C24.4019 -201.026 126.536 -66.6703 374.979 -44.9276C500.507 -33.9423 606.22 -56.7095 676.635 -78.0482" stroke="white" stroke-width="1.36" stroke-linecap="round" stroke-linejoin="round"/>
</g>
</svg>
