<svg width="234" height="25" viewBox="0 0 234 25" fill="none" xmlns="http://www.w3.org/2000/svg">
<path d="M137.36 0H129.99L120 24.98H127.29L129.44 19.6H137.9L140.01 24.98H147.34L137.36 0ZM135.45 13.47H131.89L133.66 8.99L135.45 13.47Z" fill="#DB1F1F"/>
<path d="M144.77 1.2C143.97 2 143.56 2.97 143.56 4.08V10.11C143.56 11.22 143.97 12.19 144.77 12.99C145.57 13.79 146.54 14.19 147.66 14.19H158.68V18.84H146.47L148.92 24.98H161.09C162.2 24.98 163.18 24.57 163.98 23.77C164.78 22.97 165.19 22 165.19 20.88V12.15C165.19 11.04 164.78 10.06 163.98 9.26C163.18 8.46 162.21 8.05 161.09 8.05H150.07V6.12H165.18V0H147.66C146.55 0 145.57 0.4 144.77 1.2Z" fill="#DB1F1F"/>
<path d="M166.76 0V6.14H174.65V24.98H181.16V6.14H188.38V0H166.76Z" fill="#DB1F1F"/>
<path d="M191.15 1.21C190.35 2.01 189.95 2.98 189.95 4.1V20.9C189.95 22.02 190.36 22.99 191.15 23.79C191.95 24.59 192.92 25 194.04 25H209.88V18.86H196.45V14.21H209.88V8.07H196.45V6.14H209.88V0H194.04C192.92 0 191.95 0.41 191.15 1.21Z" fill="#DB1F1F"/>
<path d="M233.06 7.79V4.09C233.06 2.98 232.65 2.01 231.85 1.2C231.05 0.400002 230.08 -0.00999832 228.96 -0.00999832H211.44V24.97H217.94V14.19H226.55V24.97H233.05V14.49C233.05 13.38 232.64 12.4 231.84 11.6C231.66 11.42 231.48 11.27 231.28 11.13C231.47 10.99 231.66 10.83 231.84 10.66C232.64 9.86 233.05 8.89 233.05 7.77L233.06 7.79ZM226.56 8.06H217.95V6.13H226.56V8.06Z" fill="#DB1F1F"/>
<path d="M29.3999 0L19.4099 24.98H26.6999L28.8499 19.6H37.3099L39.4199 24.98H46.7499L36.7799 0H29.4099H29.3999ZM34.8599 13.47H31.2999L33.0699 8.99L34.8599 13.47Z" fill="#DB1F1F"/>
<path d="M69.47 1.21C68.67 2.01 68.27 2.98 68.27 4.1V20.9C68.27 22.02 68.68 22.99 69.47 23.79C70.27 24.59 71.24 25 72.36 25H89.88V8.06H76.66V14.2H83.38V18.85H74.77V6.14H89.88V0H72.36C71.24 0 70.27 0.41 69.47 1.21Z" fill="#DB1F1F"/>
<path d="M112.2 0L104.87 15.03L97.6799 0H91.4399V24.98H97.9399V15.68L102.46 24.98H107.41L111.92 15.68V24.98H118.43V0H112.2Z" fill="#DB1F1F"/>
<path d="M19.94 18.85H6.5V0H0V20.89C0 22.01 0.41 22.98 1.21 23.78C2.01 24.58 2.98 24.99 4.1 24.99H17.85L19.94 19.76V18.86V18.85Z" fill="#DB1F1F"/>
<path d="M60.1901 12.54L51.2401 0H45.0801V16.85L48.3301 24.98H51.5801V12.43L60.5501 24.98H66.6901V0H60.1901V12.54Z" fill="#DB1F1F"/>
</svg>
