<svg width="7" height="12" viewBox="0 0 7 12" fill="none" xmlns="http://www.w3.org/2000/svg">
<path d="M1.11747 0.82928C0.964615 0.825918 0.814514 0.870228 0.68803 0.956117C0.561547 1.04201 0.464966 1.16523 0.411717 1.30855C0.358468 1.45186 0.351195 1.60819 0.39091 1.75583C0.430626 1.90347 0.515355 2.03501 0.633319 2.13227L5.13431 5.9882L0.633319 9.84278C0.551717 9.90276 0.483378 9.9789 0.432581 10.0665C0.381783 10.1541 0.349622 10.2513 0.338111 10.3519C0.3266 10.4525 0.335987 10.5544 0.365685 10.6512C0.395383 10.7481 0.444751 10.8377 0.510698 10.9146C0.576645 10.9914 0.657751 11.0538 0.748935 11.0978C0.84012 11.1419 0.93942 11.1666 1.04062 11.1705C1.14181 11.1745 1.24272 11.1575 1.33703 11.1206C1.43134 11.0837 1.51701 11.0277 1.58869 10.9562L6.74192 6.54705C6.82284 6.47799 6.88782 6.39227 6.93238 6.29567C6.97694 6.19906 7.00002 6.09391 7.00002 5.98753C7.00002 5.88114 6.97694 5.77599 6.93238 5.67938C6.88782 5.58278 6.82284 5.49698 6.74192 5.42792L1.58869 1.01457C1.45851 0.898944 1.29153 0.833376 1.11747 0.82928Z" fill="white"/>
</svg>
