<svg width="7" height="12" viewBox="0 0 7 12" fill="none" xmlns="http://www.w3.org/2000/svg">
<path d="M5.88255 0.82928C6.0354 0.825918 6.18551 0.870228 6.31199 0.956117C6.43847 1.04201 6.53505 1.16523 6.5883 1.30855C6.64155 1.45186 6.64882 1.60819 6.60911 1.75583C6.56939 1.90347 6.48466 2.03501 6.3667 2.13227L1.86571 5.9882L6.3667 9.84278C6.4483 9.90276 6.51664 9.9789 6.56744 10.0665C6.61824 10.1541 6.6504 10.2513 6.66191 10.3519C6.67342 10.4525 6.66403 10.5544 6.63433 10.6512C6.60464 10.7481 6.55527 10.8377 6.48932 10.9146C6.42337 10.9914 6.34227 11.0538 6.25108 11.0978C6.1599 11.1419 6.0606 11.1666 5.9594 11.1705C5.85821 11.1745 5.7573 11.1575 5.66299 11.1206C5.56868 11.0837 5.48301 11.0277 5.41133 10.9562L0.258104 6.54705C0.177178 6.47799 0.112195 6.39227 0.067636 6.29567C0.0230765 6.19906 1.43051e-06 6.09391 1.43051e-06 5.98753C1.43051e-06 5.88114 0.0230765 5.77599 0.067636 5.67938C0.112195 5.58278 0.177178 5.49698 0.258104 5.42792L5.41133 1.01457C5.54151 0.898944 5.70848 0.833376 5.88255 0.82928Z" fill="white"/>
</svg>
