<svg width="19" height="20" viewBox="0 0 19 20" fill="none" xmlns="http://www.w3.org/2000/svg">
<path d="M18.6701 17.0815L15.0177 13.4292C16.1246 11.9801 16.7317 10.2225 16.7319 8.36782C16.7319 6.13276 15.8614 4.03132 14.2808 2.4509C12.7003 0.870491 10.5992 0 8.36384 0C6.12877 0 4.02733 0.870491 2.44692 2.4509C-0.815639 5.71373 -0.815639 11.0225 2.44692 14.2847C4.02733 15.8654 6.12877 16.7359 8.36384 16.7359C10.2185 16.7357 11.9761 16.1286 13.4252 15.0217L17.0775 18.674C17.2972 18.894 17.5857 19.004 17.8738 19.004C18.162 19.004 18.4504 18.894 18.6701 18.674C19.11 18.2344 19.11 17.5212 18.6701 17.0815ZM4.03943 12.6922C1.65506 10.3079 1.65534 6.42805 4.03943 4.04341C5.19449 2.88862 6.73036 2.25239 8.36384 2.25239C9.99759 2.25239 11.5332 2.88862 12.6882 4.04341C13.8433 5.19848 14.4795 6.73435 14.4795 8.36782C14.4795 10.0016 13.8433 11.5372 12.6882 12.6922C11.5332 13.8473 9.99759 14.4835 8.36384 14.4835C6.73036 14.4835 5.19449 13.8473 4.03943 12.6922Z" fill="#DB1F1F"/>
</svg>
